<svg width="82" height="56" viewBox="0 0 82 56" fill="none" xmlns="http://www.w3.org/2000/svg">
<path d="M49.0742 47.8762H15.9376V55.047H49.0742V47.8762Z" fill="white"/>
<path d="M15.9374 55.047H1.59576L8.76659 47.8762L15.9374 55.047Z" fill="#FFA500"/>
<path d="M8.76659 47.8763L1.59576 55.0472V0.967163H15.9374V44.0064V47.8763V55.0472L8.76659 47.8763Z" fill="white"/>
<path d="M15.9376 44.0064V0.967163H53.6698V21.626H49.2165V47.8763H15.9376V44.0064Z" fill="#FFA500"/>
<path d="M72.4506 21.626H64.9952H58.3935H57.2411H53.6556H49.0743V47.8763V55.0471H80.4893V50.3093V44.0064V41.4169V38.6994V35.9676V33.2359V30.6606V21.626H72.4506Z" fill="white"/>
<path d="M71.1561 38.5426C72.4509 38.6849 73.4468 39.8373 73.3045 41.1321C73.1623 43.4228 70.7293 44.5752 68.1398 46.7236C66.7028 45.0021 65.2658 43.8496 64.5544 42.5691C64.1276 41.8577 63.843 41.1321 63.9853 40.2784C64.1276 38.9837 65.28 37.9877 66.5605 38.13C67.2719 38.13 67.8553 38.4146 68.1398 38.9837C68.2821 39.2682 68.5667 39.5528 68.709 39.9938C69.2781 38.9837 70.0037 38.4146 71.1419 38.5568L71.1561 38.5426Z" fill="#FFA500"/>
<path d="M65.8482 33.9615C67.5698 34.1038 68.7223 35.5408 68.58 37.2624C68.58 37.9738 68.2954 38.5571 68.0109 38.9839C67.584 38.4148 67.1572 38.1303 66.4316 38.1303C65.1369 38.1303 63.9986 38.984 63.9986 40.2787C63.9986 41.1466 64.1409 41.858 64.5677 42.5694C63.7141 43.1385 62.8462 43.8641 61.9925 44.5755C59.2608 41.2746 56.401 39.4108 56.5432 36.3945C56.6855 34.6729 58.1225 33.5205 59.8441 33.6627C61.4234 33.805 61.9925 34.6729 62.7181 36.0957C63.5718 34.5164 64.4397 33.9473 65.8767 33.9473L65.8482 33.9615Z" fill="#FFA500"/>
<path d="M38.3176 43.1384C38.7871 43.1384 39.1713 43.5226 39.1713 44.0063C39.1713 44.4901 38.7871 44.86 38.3176 44.86C37.8481 44.86 37.4639 44.4758 37.4639 44.0063C37.4639 43.5368 37.8481 43.1384 38.3176 43.1384Z" fill="#23262F" fill-opacity="0.8"/>
<path d="M35.7273 43.1384C36.1969 43.1384 36.581 43.5226 36.581 44.0063C36.581 44.4901 36.1969 44.86 35.7273 44.86C35.2578 44.86 34.8594 44.4758 34.8594 44.0063C34.8594 43.5368 35.2436 43.1384 35.7273 43.1384Z" fill="#23262F" fill-opacity="0.8"/>
<path d="M15.9366 55.9007H1.59494C1.16811 55.9007 0.741272 55.4739 0.741272 55.0328V0.9528C0.741272 0.525965 1.16811 0.0991211 1.59494 0.0991211H15.9366C16.3634 0.0991211 16.7903 0.525965 16.7903 0.9528C16.7903 1.37964 16.3634 1.80646 15.9366 1.80646H2.44861V54.0226H15.9366C16.3634 54.0226 16.7903 54.4495 16.7903 54.8763C16.7903 55.3031 16.3634 55.8865 15.9366 55.8865V55.9007Z" fill="#23262F" fill-opacity="0.8"/>
<path d="M35.0161 27.2174C32.142 27.2174 29.4245 26.065 27.4184 24.0589C25.4123 22.0527 24.2598 19.321 24.2598 16.4612V8.42248C24.2598 7.99564 24.6867 7.5688 25.1135 7.5688C25.5403 7.5688 25.9814 7.99564 25.9814 8.42248V16.4612C25.9814 18.8942 26.9916 21.0568 28.5566 22.7784C30.2782 24.4999 32.5689 25.3536 34.8738 25.3536C39.7539 25.3536 43.9085 21.3413 43.9085 16.3189V8.28019C43.9085 7.85336 44.3353 7.42651 44.7621 7.42651C45.189 7.42651 45.63 7.85336 45.63 8.28019V16.3189C45.7723 22.3373 40.8922 27.2174 35.0161 27.2174Z" fill="#23262F" fill-opacity="0.8"/>
<path d="M15.937 55.9009C15.6524 55.9009 15.5102 55.7587 15.3679 55.6164L8.76618 49.0147L2.16446 55.6164C1.8799 55.9009 1.31079 55.9009 0.869729 55.6164C0.585172 55.3318 0.585172 54.7627 0.869729 54.3216L8.04056 47.1508C8.32511 46.8662 8.89423 46.8662 9.33529 47.1508L16.5061 54.3216C16.7907 54.6062 16.7907 55.1753 16.5061 55.6164C16.3638 55.7587 16.2216 55.9009 15.937 55.9009Z" fill="#23262F" fill-opacity="0.8"/>
<path d="M8.76542 48.7298C8.33858 48.7298 7.89752 48.303 7.89752 47.8619V24.4856C7.89752 24.0587 8.32436 23.6177 8.76542 23.6177C9.20648 23.6177 9.61909 24.0445 9.61909 24.4856V47.8619C9.61909 48.2887 9.19225 48.7298 8.76542 48.7298Z" fill="#23262F" fill-opacity="0.8"/>
<path d="M46.6266 9.29037H43.0412C42.6144 9.29037 42.1876 8.86352 42.1876 8.43669C42.1876 8.00985 42.6144 7.58301 43.0412 7.58301H46.6266C47.0535 7.58301 47.4945 8.00985 47.4945 8.43669C47.4945 8.86352 47.0677 9.29037 46.6266 9.29037Z" fill="#23262F" fill-opacity="0.8"/>
<path d="M26.8352 9.29037H23.2498C22.823 9.29037 22.3819 8.86352 22.3819 8.43669C22.3819 8.00985 22.8087 7.58301 23.2498 7.58301H26.8352C27.262 7.58301 27.7031 8.00985 27.7031 8.43669C27.8454 8.86352 27.4186 9.29037 26.8352 9.29037Z" fill="#23262F" fill-opacity="0.8"/>
<path d="M49.0739 55.9007H15.9373C15.5105 55.9007 15.0694 55.4739 15.0694 55.0328V0.9528C15.0694 0.525965 15.4962 0.0991211 15.9373 0.0991211H53.6695C54.0964 0.0991211 54.5232 0.525965 54.5232 0.9528V21.6116C54.5232 22.0384 54.0964 22.4653 53.6695 22.4653C53.2427 22.4653 52.8016 22.0384 52.8016 21.6116V1.96296H16.9332V54.1791H49.202C49.6288 54.1791 50.0699 54.606 50.0699 55.0328C50.0699 55.4596 49.643 55.9007 49.0597 55.9007H49.0739Z" fill="#23262F" fill-opacity="0.8"/>
<path d="M80.4875 55.9005H49.0725C48.6456 55.9005 48.2188 55.4737 48.2188 55.0326V21.6114C48.2188 21.1846 48.6456 20.7435 49.0725 20.7435H80.4875C80.9144 20.7435 81.3412 21.1704 81.3412 21.6114V55.0326C81.3412 55.4595 80.9144 55.9005 80.4875 55.9005ZM50.0827 54.0367H79.6339V22.4793H50.0827V54.0367Z" fill="#23262F" fill-opacity="0.8"/>
<path d="M72.4496 29.6504C72.0227 29.6504 71.5817 29.2236 71.5817 28.7967V20.3312C71.5817 18.4673 70.8703 16.888 69.5756 15.5933C68.2808 14.2986 66.5593 13.5872 64.8377 13.5872C61.11 13.5872 58.0937 16.6035 58.0937 20.3312V28.7967C58.0937 29.2236 57.6669 29.6504 57.2258 29.6504C56.7847 29.6504 56.3721 29.2236 56.3721 28.7967V20.3312C56.3721 15.5933 60.2421 11.8656 64.8377 11.8656C67.1284 11.8656 69.291 12.7193 70.8561 14.2985C72.4354 15.8778 73.289 18.0263 73.289 20.3169V28.7825C73.289 29.2093 72.8622 29.6362 72.4354 29.6362L72.4496 29.6504Z" fill="#23262F" fill-opacity="0.8"/>
<path d="M49.0739 48.7301H15.9373C15.5105 48.7301 15.0694 48.3033 15.0694 47.8622C15.0694 47.4211 15.4962 47.0085 15.9373 47.0085H49.0739C49.5008 47.0085 49.9276 47.4354 49.9276 47.8622C49.9276 48.289 49.643 48.7301 49.0739 48.7301Z" fill="#23262F" fill-opacity="0.8"/>
<path d="M32.996 45.0022H15.9226C15.4958 45.0022 15.0547 44.5754 15.0547 44.1485C15.0547 43.7217 15.4816 43.2806 15.9226 43.2806H32.996C33.4229 43.2806 33.8639 43.7075 33.8639 44.1485C33.8639 44.5896 33.4371 45.0022 32.996 45.0022Z" fill="#23262F" fill-opacity="0.8"/>
<path d="M80.4885 51.1771H54.5227C54.0958 51.1771 53.669 50.7503 53.669 50.3092C53.669 49.8682 54.0958 49.4556 54.5227 49.4556H80.4885C80.9153 49.4556 81.3421 49.8824 81.3421 50.3092C81.3421 50.7361 80.9153 51.1771 80.4885 51.1771Z" fill="#23262F" fill-opacity="0.8"/>
<path d="M61.9784 45.429C61.6938 45.429 61.4092 45.2867 61.267 45.1444C60.5556 44.433 59.9722 43.7074 59.2608 42.996C57.2547 40.8476 55.3909 38.9838 55.6754 36.252C55.8177 34.1036 57.6815 32.5243 59.8299 32.6666C61.267 32.8089 62.1206 33.5203 62.704 34.3882C63.4154 33.6768 64.4255 33.0934 65.8626 33.2357C66.8727 33.378 67.8687 33.8048 68.5943 34.6727C69.3057 35.5264 69.6045 36.5366 69.4622 37.5468C69.4622 38.2581 69.1776 38.9838 68.7508 39.6952C68.4662 40.122 68.0394 40.2643 67.4561 39.9797C67.0292 39.6952 66.887 39.2683 67.1715 38.685C67.4561 38.2582 67.5984 37.8171 67.5984 37.248C67.5984 36.6789 67.4561 36.0955 67.1715 35.6687C66.7447 35.2419 66.3178 34.9573 65.7345 34.9573C64.7243 34.815 64.1552 35.2419 63.4438 36.5366C63.3015 36.8211 63.017 36.9634 62.5901 36.9634C62.3056 36.9634 62.021 36.6789 61.8788 36.3943C61.3096 34.9573 60.8686 34.5305 59.8726 34.3882C58.7202 34.2459 57.7242 35.0996 57.582 36.3943C57.4397 38.2581 58.8767 39.6952 60.7405 41.7013C61.1674 42.2704 61.7507 42.6973 62.1775 43.2806C62.7467 42.8538 63.33 42.4269 63.8991 41.9859L64.0414 41.8436C64.4682 41.559 65.0516 41.559 65.3361 41.9859C65.6207 42.4127 65.6207 42.996 65.1938 43.2806L64.9093 43.4229C64.1979 43.992 63.4723 44.5753 62.6186 45.1444C62.4763 45.2867 62.3341 45.429 62.0495 45.429H61.9784Z" fill="#23262F" fill-opacity="0.8"/>
<path d="M68.1535 47.5916C67.8689 47.5916 67.5844 47.4493 67.4421 47.307C66.873 46.7379 66.4319 46.1546 65.8628 45.5855C65.0091 44.7318 64.2835 43.8639 63.7144 43.0102C63.1453 42.1423 63.003 41.1464 63.003 40.2785C63.1453 38.5569 64.7246 37.1199 66.4461 37.2622C67.4563 37.4045 68.1677 37.689 68.7368 38.4146C69.3059 37.9878 69.8893 37.561 70.8852 37.561H71.1698C72.0377 37.561 72.8913 37.9878 73.3182 38.7134C73.8873 39.4248 74.1718 40.1504 74.0296 41.0041C74.0296 43.2948 72.4503 44.5895 70.4442 46.0265C69.875 46.4534 69.2917 46.8802 68.7226 47.4635C68.5803 47.6058 68.2957 47.6058 68.1535 47.6058V47.5916ZM66.2896 39.126C65.5782 39.126 64.8526 39.6951 64.8526 40.4208C64.8526 40.9899 64.9949 41.5732 65.2794 42.1423C65.7063 42.8537 66.4319 43.5793 67.2856 44.433C67.5701 44.7176 67.997 45.1444 68.2957 45.5855C68.7226 45.3009 69.1636 45.0163 69.4482 44.7318C71.312 43.2948 72.3222 42.4411 72.4645 41.1464C72.4645 40.7196 72.3222 40.435 72.18 40.1362C71.8954 39.8516 71.6108 39.7094 71.1698 39.5671H71.0275C70.4584 39.5671 70.1596 39.7094 69.5905 40.7196C69.4482 41.0041 69.1636 41.1464 68.7368 41.1464C68.4523 41.1464 68.1677 40.8618 68.0254 40.5773C67.8831 40.1504 67.7409 39.8659 67.5986 39.7094C67.1718 39.2825 67.0295 39.1403 66.3038 39.1403L66.2896 39.126Z" fill="#23262F" fill-opacity="0.8"/>
<path d="M80.4899 45.0023H76.9045C76.4777 45.0023 76.0508 44.5755 76.0508 44.1487C76.0508 43.7218 76.4777 43.2808 76.9045 43.2808H80.4899C80.9168 43.2808 81.3436 43.7076 81.3436 44.1487C81.3436 44.5897 80.9168 45.0023 80.4899 45.0023Z" fill="#23262F" fill-opacity="0.8"/>
<path d="M80.4899 42.2845H76.9045C76.4777 42.2845 76.0508 41.8577 76.0508 41.4166C76.0508 40.9756 76.4777 40.563 76.9045 40.563H80.4899C80.9168 40.563 81.3436 40.9898 81.3436 41.4166C81.3436 41.8435 80.9168 42.2845 80.4899 42.2845Z" fill="#23262F" fill-opacity="0.8"/>
<path d="M80.4899 39.553H76.9045C76.4777 39.553 76.0508 39.1262 76.0508 38.6993C76.0508 38.2725 76.4777 37.8314 76.9045 37.8314H80.4899C80.9168 37.8314 81.3436 38.2583 81.3436 38.6993C81.3436 39.1404 80.9168 39.553 80.4899 39.553Z" fill="#23262F" fill-opacity="0.8"/>
<path d="M80.4899 36.8213H76.9045C76.4777 36.8213 76.0508 36.3945 76.0508 35.9677C76.0508 35.5409 76.4777 35.114 76.9045 35.114H80.4899C80.9168 35.114 81.3436 35.5409 81.3436 35.9677C81.3436 36.3945 80.9168 36.8213 80.4899 36.8213Z" fill="#23262F" fill-opacity="0.8"/>
<path d="M80.4899 34.2459H76.9045C76.4777 34.2459 76.0508 33.819 76.0508 33.3922C76.0508 32.9654 76.4777 32.5243 76.9045 32.5243H80.4899C80.9168 32.5243 81.3436 32.9511 81.3436 33.3922C81.3436 33.8333 80.9168 34.2459 80.4899 34.2459Z" fill="#23262F" fill-opacity="0.8"/>
<path d="M80.4899 31.5142H76.9045C76.4777 31.5142 76.0508 31.0873 76.0508 30.6463C76.0508 30.2052 76.4777 29.7926 76.9045 29.7926H80.4899C80.9168 29.7926 81.3436 30.2194 81.3436 30.6463C81.3436 31.0731 80.9168 31.5142 80.4899 31.5142Z" fill="#23262F" fill-opacity="0.8"/>
</svg>
