<svg width="80" height="58" viewBox="0 0 80 58" fill="none" xmlns="http://www.w3.org/2000/svg">
<path d="M22.4706 46.1521H2.05749V41.5869C2.05749 35.8477 6.80532 31.2825 12.5966 31.5434C17.4749 31.6738 21.4271 35.1956 22.3401 39.8912C22.601 41.0651 22.4706 41.9782 22.4706 46.1521Z" fill="white"/>
<path d="M12.5965 28.1523C12.5965 19.1523 19.9792 11.8479 29.0574 11.8479V46.1523H22.4705C22.4705 41.8479 22.6009 40.9349 22.2096 39.5001C21.2835 35.0653 17.3313 31.5436 12.5965 31.4131V28.1523Z" fill="white"/>
<path d="M20.8915 46.1522V46.9348C20.8915 51.8914 16.8089 55.9348 11.8002 55.9348C6.79147 55.9348 2.70885 51.8914 2.70885 46.9348V46.1522H9.29582C9.29582 47.4566 10.3523 48.6305 11.8002 48.6305C13.1176 48.6305 14.3045 47.587 14.3045 46.1522H20.8915Z" fill="#FFA500"/>
<path d="M71.3427 46.1522V46.9348C71.3427 51.8914 67.26 55.9348 62.2513 55.9348C57.2426 55.9348 53.16 51.8914 53.16 46.9348V46.1522H59.747V46.9348C59.747 48.2392 60.8035 49.4131 62.2513 49.4131C63.6992 49.4131 64.7557 48.3696 64.7557 46.9348V46.1522H71.3427Z" fill="#FFA500"/>
<path d="M26.8264 2.19531C29.5133 2.19531 31.7046 4.36053 31.7046 7.0214C31.7046 9.68227 29.5264 11.8475 26.8264 11.8475C24.1264 11.8475 21.9481 9.68227 21.9481 7.0214C21.9481 4.36053 24.1264 2.19531 26.8264 2.19531Z" fill="#FFA500"/>
<path d="M60.4132 17.4566C59.8915 17.9783 59.0958 18.3696 58.1698 18.3696H49.8741C49.6132 18.3696 49.3524 18.3696 49.0784 18.2392C47.6306 17.8479 46.5741 16.5436 46.5741 15.1088C46.5741 14.1957 46.9654 13.4131 47.5002 12.7609C48.1524 12.1088 48.948 11.8479 49.8741 11.8479H58.1698C60.0089 11.8479 61.4567 13.2827 61.4567 15.1088C61.3263 16.0218 61.0654 16.8044 60.4002 17.4566H60.4132Z" fill="#FFA500"/>
<path d="M64.7556 43.5432V46.0215H48.1512V39.4998H60.5295C62.9034 39.6302 64.7426 41.3258 64.7426 43.5432H64.7556Z" fill="#FFA500"/>
<path d="M60.4142 17.4564C70.4316 20.0651 77.9316 29.0651 77.9316 39.8912V46.0217H64.7576V43.5434C64.7576 41.326 62.9185 39.4999 60.675 39.4999H48.2967V20.8477C48.2967 19.9347 48.5576 19.0217 49.2228 18.3695C49.4837 18.3695 49.7446 18.4999 50.0185 18.4999H58.3141C58.9663 18.3695 59.762 18.1086 60.4272 17.4564H60.4142Z" fill="#FFA500"/>
<path d="M29.0564 47.7174H22.4694C21.5433 47.7174 20.7607 46.9348 20.7607 46.0218C20.7607 45.1087 21.5564 44.3261 22.4694 44.3261H27.4781V13.5435C20.0955 14.3261 14.3042 20.587 14.3042 28.1522V29.9783C17.0694 30.3696 19.5738 31.8044 21.4129 34.0218C21.6738 34.4131 21.8042 34.5435 21.9346 34.6739C22.4564 35.4566 22.3259 36.3696 21.5433 36.8913C20.7477 37.4131 19.8346 37.2826 19.2999 36.5L19.1694 36.3696C17.4607 34.2826 15.0868 33.1087 12.7129 33.1087C11.7868 33.1087 11.1346 32.3261 11.1346 31.5435V28.2826C11.1346 18.3696 19.2999 10.2826 29.1868 10.2826C30.1129 10.2826 30.8955 11.0652 30.8955 11.9783V46.2826C30.7651 47.0653 29.9694 47.7174 29.0564 47.7174Z" fill="#23262F" fill-opacity="0.8"/>
<path d="M48.2954 47.7171H29.0562C28.1301 47.7171 27.3475 46.9345 27.3475 46.0215C27.3475 45.1084 28.1432 44.3258 29.0562 44.3258H48.1519C49.078 44.3258 49.8606 45.1084 49.8606 46.0215C49.8606 47.0649 49.0649 47.7171 48.2823 47.7171H48.2954Z" fill="#23262F" fill-opacity="0.8"/>
<path d="M11.8003 57.5C5.87856 57.5 1.13073 52.8044 1.13073 46.9348C1.13073 46.0217 1.92638 45.2391 2.83943 45.2391C3.75247 45.2391 4.54812 46.0217 4.54812 46.9348C4.54812 50.9783 7.83508 54.2392 11.9307 54.2392C16.0264 54.2392 19.3134 50.9783 19.3134 46.9348C19.3134 46.0217 20.109 45.2391 21.0221 45.2391C21.9351 45.2391 22.7307 46.0217 22.7307 46.9348C22.4699 52.8044 17.722 57.5 11.8003 57.5Z" fill="#23262F" fill-opacity="0.8"/>
<path d="M11.8003 50.1957C9.55678 50.1957 7.71764 48.3696 7.71764 46.1522C7.71764 45.2391 8.5133 44.4565 9.42634 44.4565C10.3394 44.4565 11.135 45.2391 11.135 46.1522C11.135 46.5435 11.5263 46.9348 11.9307 46.9348C12.335 46.9348 12.7263 46.5435 12.7263 46.1522C12.7263 45.2391 13.522 44.4565 14.435 44.4565C15.3481 44.4565 16.1437 45.2391 16.1437 46.1522C15.8829 48.3696 14.0307 50.1957 11.8003 50.1957Z" fill="#23262F" fill-opacity="0.8"/>
<path d="M62.2515 57.5C56.3297 57.5 51.5819 52.8044 51.5819 46.9348C51.5819 46.0217 52.3776 45.2391 53.2906 45.2391C54.2036 45.2391 54.9993 46.0217 54.9993 46.9348C54.9993 50.9783 58.2863 54.2392 62.3819 54.2392C66.4776 54.2392 69.7645 50.9783 69.7645 46.9348C69.7645 46.0217 70.5602 45.2391 71.4732 45.2391C72.3863 45.2391 73.1819 46.0217 73.1819 46.9348C72.9211 52.8044 68.1732 57.5 62.2515 57.5Z" fill="#23262F" fill-opacity="0.8"/>
<path d="M62.2524 50.9783C60.0089 50.9783 58.1698 49.1522 58.1698 46.9348C58.1698 46.0217 58.9654 45.2391 59.8785 45.2391C60.7915 45.2391 61.5872 46.0217 61.5872 46.9348C61.5872 47.3261 61.9785 47.7174 62.3828 47.7174C62.7872 47.7174 63.1785 47.3261 63.1785 46.9348C63.1785 46.0217 63.9741 45.2391 64.8872 45.2391C65.8002 45.2391 66.5959 46.0217 66.5959 46.9348C66.335 49.1522 64.4828 50.9783 62.2524 50.9783Z" fill="#23262F" fill-opacity="0.8"/>
<path d="M64.7564 47.7173C63.8303 47.7173 63.0477 46.9346 63.0477 46.0216V43.5433C63.0477 42.239 61.9911 41.1955 60.6738 41.1955H48.2955C47.3694 41.1955 46.5868 40.4129 46.5868 39.4999C46.5868 38.5868 47.3824 37.8042 48.2955 37.8042H60.6738C63.8303 37.8042 66.3346 40.2825 66.3346 43.4129V45.8912C66.3346 47.0651 65.539 47.7173 64.7564 47.7173Z" fill="#23262F" fill-opacity="0.8"/>
<path d="M76.2225 33.1086H61.4703C60.5442 33.1086 59.7616 32.326 59.7616 31.4129C59.7616 30.4999 60.5572 29.7173 61.4703 29.7173H76.3529C77.279 29.7173 78.0616 30.4999 78.0616 31.4129C78.0616 32.326 77.1355 33.1086 76.2225 33.1086Z" fill="#23262F" fill-opacity="0.8"/>
<path d="M72.9349 28.1521H64.6392C63.7131 28.1521 62.9305 27.3694 62.9305 26.4564C62.9305 25.5434 63.7262 24.7607 64.6392 24.7607H72.9349C73.861 24.7607 74.6436 25.5434 74.6436 26.4564C74.6436 27.3694 73.8479 28.1521 72.9349 28.1521Z" fill="#23262F" fill-opacity="0.8"/>
<path d="M77.9303 47.7173H48.2955C47.3694 47.7173 46.5868 46.9347 46.5868 46.0216V20.8477C46.5868 19.5433 46.9781 18.3694 47.7737 17.326C47.7737 17.1955 47.9042 17.1955 47.9042 17.0651C48.5564 16.4129 49.6129 16.5433 50.2781 17.1955C50.7998 17.8477 50.7998 18.7607 50.2781 19.2825C50.0172 19.6738 49.7564 20.1955 49.7564 20.7173V44.4564H76.1042V39.8912C76.1042 30.1086 69.3868 21.4999 59.9042 19.0216C59.1085 18.8912 58.5868 18.239 58.5868 17.4564C58.5868 16.5433 59.3825 15.7607 60.1651 15.7607H60.5564C71.8912 18.7607 79.5216 28.6738 79.5216 40.0216V46.1521C79.5216 47.0651 78.7259 47.7173 77.9433 47.7173H77.9303Z" fill="#23262F" fill-opacity="0.8"/>
<path d="M26.828 13.5435C23.1367 13.5435 20.2411 10.6739 20.2411 7.02175C20.2411 3.36957 23.1367 0.5 26.828 0.5C30.5194 0.5 33.415 3.36957 33.415 7.02175C33.415 10.6739 30.5194 13.5435 26.828 13.5435ZM26.828 3.76087C24.9889 3.76087 23.5411 5.19566 23.5411 7.02175C23.5411 8.84783 24.9889 10.2826 26.828 10.2826C28.6672 10.2826 30.115 8.84783 30.115 7.02175C30.115 5.19566 28.6672 3.76087 26.828 3.76087Z" fill="#23262F" fill-opacity="0.8"/>
<path d="M37.7573 8.58675H31.8355C30.9094 8.58675 30.1268 7.80414 30.1268 6.89109C30.1268 5.97805 30.9225 5.19543 31.8355 5.19543H37.7573C38.6834 5.19543 39.466 5.97805 39.466 6.89109C39.466 7.80414 38.6703 8.58675 37.7573 8.58675Z" fill="#23262F" fill-opacity="0.8"/>
<path d="M35.1216 41.1955H30.1129C29.1868 41.1955 28.4042 40.4129 28.4042 39.4999C28.4042 38.5868 29.1998 37.8042 30.1129 37.8042H35.1216C36.0477 37.8042 36.8303 38.5868 36.8303 39.4999C36.8303 40.4129 35.9042 41.1955 35.1216 41.1955Z" fill="#23262F" fill-opacity="0.8"/>
<path d="M36.6998 34.6739H30.1129C29.1868 34.6739 28.4042 33.8913 28.4042 32.9783C28.4042 32.0652 29.1998 31.2826 30.1129 31.2826H36.6998C37.6259 31.2826 38.4085 32.0652 38.4085 32.9783C38.4085 33.8913 37.6129 34.6739 36.6998 34.6739Z" fill="#23262F" fill-opacity="0.8"/>
<path d="M58.1704 20.0652H49.8748C49.4835 20.0652 49.0791 20.0652 48.6878 19.9348C46.4443 19.413 44.8661 17.4565 44.8661 15.2391C44.8661 13.9348 45.3878 12.7609 46.3139 11.7174C47.24 10.8043 48.5574 10.2826 49.8748 10.2826H58.1704C60.9357 10.2826 63.1791 12.5 63.1791 15.2391C63.1791 16.5435 62.6574 17.7174 61.7313 18.7609L61.6009 18.8913C60.5444 19.5435 59.3574 20.0652 58.1704 20.0652ZM49.8748 13.5435C49.4835 13.5435 49.0791 13.6739 48.6878 14.0652C48.427 14.3261 48.1661 14.7174 48.1661 15.2391C48.1661 16.0217 48.6878 16.6739 49.4835 16.8043H58.1835C58.5748 16.8043 58.9791 16.6739 59.3704 16.4131C59.6313 16.1522 59.8922 15.6304 59.8922 15.2391C59.8922 14.3261 59.0965 13.5435 58.3139 13.5435H49.8878H49.8748Z" fill="#23262F" fill-opacity="0.8"/>
<path d="M74.6439 57.5001H11.8004C10.8743 57.5001 10.0917 56.7175 10.0917 55.8044C10.0917 54.8914 10.8873 54.1088 11.8004 54.1088H74.6309C75.557 54.1088 76.3396 54.8914 76.3396 55.8044C76.2091 56.8479 75.4135 57.5001 74.6309 57.5001H74.6439Z" fill="#23262F" fill-opacity="0.8"/>
<path d="M23.5257 21.6303H15.2301C14.304 21.6303 13.5214 20.8477 13.5214 19.9347C13.5214 19.0216 14.317 18.239 15.2301 18.239H23.5257C24.4518 18.239 25.2344 19.0216 25.2344 19.9347C25.2344 20.8477 24.4388 21.6303 23.5257 21.6303Z" fill="#23262F" fill-opacity="0.8"/>
<path d="M18.6606 26.5869H13.6519C12.7258 26.5869 11.9432 25.8043 11.9432 24.8912C11.9432 23.9782 12.7389 23.1956 13.6519 23.1956H18.6606C19.5867 23.1956 20.3693 23.9782 20.3693 24.8912C20.3693 25.8043 19.4432 26.5869 18.6606 26.5869Z" fill="#23262F" fill-opacity="0.8"/>
<path d="M22.4697 47.7175H2.18708C1.26099 47.7175 0.478386 46.9349 0.478386 46.0218V41.4566C0.478386 34.8044 6.00883 29.587 12.7262 29.7175C17.9958 29.8479 22.4697 33.5001 23.7871 38.4566C23.9175 38.8479 24.048 39.3697 24.048 39.6305C24.3088 41.1957 24.1784 41.8479 24.1784 46.1523C24.1784 47.0653 23.3828 47.7175 22.4697 47.7175ZM3.76534 44.4566H20.8914C20.8914 41.7175 21.0219 41.0653 20.761 39.761C19.9654 35.9784 16.548 32.9784 12.3349 32.9784C7.58709 32.9784 3.77839 36.761 3.77839 41.4566V44.4566H3.76534Z" fill="#23262F" fill-opacity="0.8"/>
</svg>
