<svg width="64" height="58" viewBox="0 0 64 58" fill="none" xmlns="http://www.w3.org/2000/svg">
<path d="M59.5276 6.03711H4.59044C3.16816 6.03711 1.96301 7.23142 1.96301 8.64285V53.4828C1.96301 54.8943 3.16816 56.0885 4.59044 56.0885H59.5276C60.9499 56.0885 62.155 54.8943 62.155 53.4828V8.64285C62.155 7.23142 60.9499 6.03711 59.5276 6.03711Z" fill="white"/>
<path d="M62.1553 15.4827H1.84387V20.8027H62.1553V15.4827Z" fill="white"/>
<path d="M50.7551 30.7913C50.9723 31.0085 51.1894 31.4428 51.1894 31.7685C51.1894 32.0942 51.0808 32.4199 50.7551 32.7456C50.2123 33.2885 49.3328 33.2885 48.7791 32.7456C48.562 32.5285 48.3448 32.0942 48.3448 31.7685C48.3448 31.4428 48.4534 31.117 48.7791 30.7913C48.9963 30.5742 49.4414 30.3571 49.7671 30.3571C50.2014 30.3571 50.538 30.4656 50.7551 30.7913Z" fill="#FFA500"/>
<path d="M44.0669 31.1168L36.4995 46.2082H32.6561L38.6927 34.2654H32.2218V31.1168H44.0669Z" fill="#FFA500"/>
<path d="M42.5266 44.3629C42.7438 44.58 42.9609 45.0143 42.9609 45.34C42.9609 45.6657 42.8523 45.9914 42.5266 46.3171C41.9838 46.86 41.1043 46.86 40.5506 46.3171C40.3335 46.1 40.1163 45.6657 40.1163 45.34C40.1163 45.0143 40.2249 44.6886 40.5506 44.3629C40.7678 44.1457 41.2129 43.9286 41.5386 43.9286C41.8643 43.9286 42.3095 44.0372 42.5266 44.3629Z" fill="#FFA500"/>
<path d="M30.6912 40.4543V43.4943H19.9426C19.9426 42.8428 19.9426 42.1914 20.0512 41.6486C20.1598 41.1057 20.2683 40.6714 20.594 40.2371C20.8112 39.8028 21.1369 39.3686 21.582 39.0429C22.0163 38.7171 22.57 38.2829 23.1129 37.9571C23.7752 37.6314 24.318 37.3057 24.7523 37.0886C25.1866 36.8714 25.5232 36.6543 25.8489 36.4371C26.066 36.22 26.2832 36.1114 26.3918 35.8943C26.5003 35.7857 26.6089 35.5686 26.6089 35.3514C26.6089 34.9171 26.5003 34.5914 26.1746 34.3743C25.8489 34.1571 25.5123 34.0486 24.9695 34.0486C24.4266 34.0486 23.8729 34.1571 23.4386 34.4829C23.0043 34.8086 22.5592 35.1343 22.1249 35.6771L19.9318 33.18C20.1489 32.9628 20.4746 32.6371 20.8112 32.42C21.2455 32.2029 21.6906 31.9857 22.1249 31.7686C22.5592 31.5514 23.1129 31.4429 23.7643 31.3343C24.3072 31.2257 24.9695 31.2257 25.6318 31.2257C27.1626 31.2257 28.3678 31.5514 29.2472 32.2028C30.1266 32.8543 30.4523 33.7228 30.4523 34.9171C30.4523 35.3514 30.3438 35.7857 30.2352 36.22C30.1266 36.5457 29.9095 36.8714 29.6923 37.1971C29.4752 37.5229 29.1495 37.74 28.9215 37.9571C28.5958 38.1743 28.2592 38.3914 28.042 38.6086C27.8249 38.7171 27.6078 38.9343 27.2712 39.0429C26.9455 39.26 26.7283 39.3686 26.3918 39.5857C26.0552 39.8029 25.8489 39.9114 25.6209 40.1286C25.4038 40.3457 25.1866 40.4543 25.078 40.5629L30.6695 40.4543H30.6912Z" fill="#FFA500"/>
<path d="M24.7629 26.6656C24.9801 26.8827 25.1972 27.3171 25.1972 27.6428C25.1972 27.9685 25.0887 28.2942 24.7629 28.6199C24.2201 29.1628 23.3407 29.1628 22.7869 28.6199C22.5698 28.4028 22.3527 27.9685 22.3527 27.6428C22.3527 27.3171 22.4612 26.9913 22.7869 26.6656C23.0041 26.4485 23.4492 26.2313 23.7749 26.2313C24.1007 26.3399 24.4372 26.4485 24.7629 26.6656Z" fill="#FFA500"/>
<path d="M13.7971 41.6484C14.0143 41.8655 14.2314 42.2998 14.2314 42.6255C14.2314 42.9512 14.1228 43.2769 13.7971 43.6027C13.2543 44.1455 12.3748 44.1455 11.8211 43.6027C11.604 43.3855 11.3868 42.9512 11.3868 42.6255C11.3868 42.2998 11.4954 41.9741 11.8211 41.6484C12.0383 41.4312 12.4834 41.2141 12.8091 41.2141C13.1348 41.2141 13.4714 41.3227 13.7971 41.6484Z" fill="#FFA500"/>
<path d="M53.937 11.4657C53.1661 11.4657 52.5147 10.8142 52.5147 10.0542C52.5147 9.29425 53.177 8.64283 53.937 8.64283C55.4678 8.64283 56.673 7.44855 56.673 5.92855C56.673 4.40855 55.4678 3.21426 53.937 3.21426C52.4061 3.21426 51.201 4.40855 51.201 5.92855C51.201 6.68855 50.5387 7.33996 49.7787 7.33996C49.0187 7.33996 48.465 6.79709 48.465 6.03709C48.465 2.99709 50.8752 0.608521 53.9478 0.608521C57.0204 0.608521 59.4307 2.99709 59.4307 6.03709C59.4307 9.07709 57.0204 11.4657 53.9478 11.4657H53.937Z" fill="#FFA500"/>
<path d="M42.9721 11.4657C42.2013 11.4657 41.5498 10.8142 41.5498 10.0542C41.5498 9.29425 42.2121 8.64283 42.9721 8.64283C44.503 8.64283 45.7081 7.44855 45.7081 5.92855C45.7081 4.40855 44.503 3.21426 42.9721 3.21426C41.4413 3.21426 40.2361 4.40855 40.2361 5.92855C40.2361 6.68855 39.5738 7.33996 38.8138 7.33996C38.0538 7.33996 37.5001 6.79709 37.5001 6.03709C37.5001 2.99709 39.9104 0.608521 42.983 0.608521C46.0555 0.608521 48.4658 2.99709 48.4658 6.03709C48.4658 9.07709 46.0555 11.4657 42.983 11.4657H42.9721Z" fill="#FFA500"/>
<path d="M32.0055 11.4656C31.2346 11.4656 30.5832 10.8141 30.5832 10.0541C30.5832 9.29415 31.2455 8.64273 32.0055 8.64273C33.5364 8.64273 34.7415 7.44845 34.7415 5.92845C34.7415 4.40845 33.5364 3.21416 32.0055 3.21416C30.4746 3.21416 29.2695 4.40845 29.2695 5.92845C29.2695 6.68845 28.6072 7.33986 27.8472 7.33986C27.0872 7.33986 26.4249 6.68845 26.4249 5.92845C26.4249 2.88845 28.8352 0.499878 31.9078 0.499878C34.9804 0.499878 37.3906 2.88845 37.3906 5.92845C37.3906 8.96845 35.0889 11.4656 32.0164 11.4656H32.0055Z" fill="#FFA500"/>
<path d="M21.0387 11.4656C20.2678 11.4656 19.6164 10.8141 19.6164 10.0541C19.6164 9.29415 20.2787 8.64273 21.0387 8.64273C22.5696 8.64273 23.7747 7.44845 23.7747 5.92845C23.7747 4.40845 22.5696 3.21416 21.0387 3.21416C19.5078 3.21416 18.3027 4.40845 18.3027 5.92845C18.3027 6.68845 17.6404 7.33986 16.8804 7.33986C16.1204 7.33986 15.4581 6.68845 15.4581 5.92845C15.4581 2.88845 17.8684 0.499878 20.941 0.499878C24.0136 0.499878 26.4238 2.88845 26.4238 5.92845C26.4238 8.96845 24.1221 11.4656 21.0496 11.4656H21.0387Z" fill="#FFA500"/>
<path d="M10.0739 11.4656C9.303 11.4656 8.65157 10.8141 8.65157 10.0541C8.65157 9.29415 9.31386 8.64273 10.0739 8.64273C11.6047 8.64273 12.8099 7.44845 12.8099 5.92845C12.8099 4.40845 11.6047 3.21416 10.0739 3.21416C8.543 3.21416 7.33786 4.40845 7.33786 5.92845C7.33786 6.68845 6.67557 7.33986 5.91557 7.33986C5.15557 7.33986 4.49329 6.68845 4.49329 5.92845C4.49329 2.88845 6.90357 0.499878 9.97614 0.499878C13.0487 0.499878 15.459 2.88845 15.459 5.92845C15.459 8.96845 13.1573 11.4656 10.0847 11.4656H10.0739Z" fill="#FFA500"/>
<path d="M62.1557 16.894H1.84428C1.07343 16.894 0.421997 16.2426 0.421997 15.4826C0.421997 14.7226 1.08428 14.0712 1.84428 14.0712H62.1557C62.9266 14.0712 63.578 14.7226 63.578 15.4826C63.578 16.2426 62.9157 16.894 62.1557 16.894Z" fill="#23262F" fill-opacity="0.8"/>
<path d="M62.1557 22.2142H1.84428C1.07343 22.2142 0.421997 21.5628 0.421997 20.8028C0.421997 20.0428 1.08428 19.3914 1.84428 19.3914H62.1557C62.9266 19.3914 63.578 20.0428 63.578 20.8028C63.578 21.5628 62.9157 22.2142 62.1557 22.2142Z" fill="#23262F" fill-opacity="0.8"/>
<path d="M59.5283 57.5001H4.48257C2.28943 57.5001 0.421997 55.6544 0.421997 53.483V8.64301C0.421997 6.47158 2.28943 4.62585 4.48257 4.62585H59.4197C61.6129 4.62585 63.4803 6.47158 63.4803 8.64301V53.483C63.5888 55.763 61.7214 57.5001 59.5283 57.5001ZM4.48257 7.34014C3.71171 7.34014 3.16885 7.88301 3.16885 8.64301V53.483C3.16885 54.243 3.71171 54.7859 4.48257 54.7859H59.4197C60.1906 54.7859 60.7334 54.243 60.7334 53.483V8.64301C60.7334 7.88301 60.1906 7.34014 59.4197 7.34014H4.48257Z" fill="#23262F" fill-opacity="0.8"/>
</svg>
