<svg width="90" height="58" viewBox="0 0 90 58" fill="none" xmlns="http://www.w3.org/2000/svg">
<path d="M79.3291 40.6592V53.7162C79.3291 55.114 78.2385 56.2047 76.8406 56.2047H70.1585C68.7606 56.2047 67.67 55.114 67.67 53.7162V48.4319H70.7729C74.6593 48.4319 77.9159 45.7898 78.8529 42.057L79.3137 40.6592H79.3291Z" fill="white"/>
<path d="M19.2261 48.4319H22.3291V53.7162C22.3291 55.114 21.2385 56.2047 19.8406 56.2047H13.1585C11.7606 56.2047 10.67 55.114 10.67 53.7162V40.6592H10.8236L11.1308 42.057C12.0678 45.6362 15.3244 48.4319 19.2108 48.4319H19.2261Z" fill="white"/>
<path d="M76.4358 24.2312C76.1322 24.0807 75.8286 23.9302 75.358 23.7797C64.6109 19.0539 32.6731 18.6024 18.3892 22.8616C16.5524 23.4787 15.7783 23.7797 14.8523 24.2312C11.0119 25.6008 8.55281 29.559 9.63056 33.6676L11.3155 40.8165L11.6191 42.186C12.545 45.8432 15.7631 48.4318 19.6035 48.4318H71.806C75.6465 48.4318 78.8645 45.8432 79.7905 42.186L80.0941 40.8165L81.779 33.6676C82.5531 29.559 80.0941 25.4503 76.4054 24.2312H76.4358Z" fill="#FFA500"/>
<path d="M58.7064 1.79541H59.1628C64.5477 1.79541 69.172 5.53741 70.2368 10.8347L72.8532 22.5227C71.4689 22.0608 70.541 21.7374 68.3962 21.4294C55.3143 18.6267 30.3825 18.4727 17.1485 22.5227L19.7649 10.8347C20.997 5.53741 25.6061 1.79541 30.8389 1.79541H58.6912H58.7064Z" fill="white"/>
<path d="M71.371 23.6292L68.7527 11.9102C67.8241 7.54068 63.9728 4.40634 59.5125 4.40634H31.4875C27.0273 4.40634 23.1759 7.52524 22.2473 11.9102L19.629 23.6292C19.3246 24.7255 18.396 25.3431 17.3152 25.0343C16.2344 24.7255 15.6255 23.7836 15.9299 22.6874L18.5482 10.9684C19.9335 4.71514 25.3223 0.5 31.6397 0.5H59.6647C65.9822 0.5 71.2188 4.86954 72.7563 10.9684L75.3746 22.6874C75.679 23.7836 74.9179 24.7255 73.9893 25.0343C72.7563 25.3431 71.6754 24.7255 71.371 23.6292Z" fill="#23262F" fill-opacity="0.8"/>
<path d="M70.9427 49.7271H18.8488C14.0924 49.7271 10.1085 46.5283 9.04809 41.9413L7.06371 33.3859C5.83672 28.3463 8.74513 23.3066 13.6531 21.6317C13.956 21.4808 14.259 21.4808 14.5771 21.33C19.485 19.1873 27.9073 18.1311 33.2697 17.8143C39.8591 17.2107 49.5083 17.2107 54.7192 17.6634C60.5361 17.9651 70.2005 19.0364 75.5629 21.33C75.8658 21.4808 76.1688 21.6317 76.4869 21.6317C81.3948 23.3066 84.1517 28.3463 82.9248 33.3859L80.9252 41.9413C79.6982 46.5132 75.7143 49.7271 70.9579 49.7271H70.9427ZM14.8649 25.2983C11.805 26.3696 10.1085 29.4176 10.881 32.6315L12.8805 41.1869C13.4865 44.0839 16.0919 46.0756 19.0155 46.0756H71.1093C74.0178 46.0756 76.4717 44.099 77.2443 41.1869L79.2438 32.6315C80.0163 29.5835 78.1683 26.3696 75.2599 25.2983C74.9569 25.1474 74.4873 24.9965 74.0329 24.8456C64.6866 20.7264 36.6477 19.806 21.6209 23.1708C21.6209 23.1708 20.5454 23.4726 20.091 23.4726C19.071 23.7743 18.46 23.9252 18.2581 23.9252C15.9556 24.6948 16.107 24.8456 14.8801 25.2983H14.8649Z" fill="#23262F" fill-opacity="0.8"/>
<path d="M21.0335 28.9998C23.8719 28.9998 26.2153 31.3431 26.2153 34.1816C26.2153 37.02 23.8719 39.3634 21.0335 39.3634C18.195 39.3634 15.8516 37.02 15.8516 34.1816C15.8516 31.3431 18.03 28.9998 21.0335 28.9998Z" fill="white"/>
<path d="M68.9651 28.9998C71.8201 28.9998 74.1469 31.3101 74.1469 34.1816C74.1469 37.053 71.8366 39.3634 68.9651 39.3634C66.0936 39.3634 63.7833 37.053 63.7833 34.1816C63.7833 31.3101 66.0936 28.9998 68.9651 28.9998Z" fill="white"/>
<path d="M15.8515 19.6207V21.538C15.8515 22.7643 14.9678 23.818 13.9538 23.818H8.68092C7.65242 23.818 6.78326 22.7643 6.78326 21.538V19.6207C6.78326 18.3943 7.66691 17.3407 8.68092 17.3407H13.9538C14.9823 17.3407 15.8515 18.2216 15.8515 19.6207Z" fill="white"/>
<path d="M83.2167 19.6207V21.538C83.2167 22.7643 82.3345 23.818 81.3221 23.818H76.0576C75.0307 23.818 74.1485 22.7643 74.1485 21.538V19.6207C74.1485 18.3943 75.0307 17.3407 76.0576 17.3407H81.3221C82.3489 17.3407 83.2167 18.2216 83.2167 19.6207Z" fill="white"/>
<path d="M65.0812 40.6592H50.8311V43.2501H65.0812V40.6592Z" fill="#23262F" fill-opacity="0.8"/>
<path d="M39.1695 40.6592H26.2149V43.2501H39.1695V40.6592Z" fill="#23262F" fill-opacity="0.8"/>
<path d="M19.1036 57.4998C18.044 57.4998 17.1485 56.5868 17.1485 55.5242C17.1485 54.4616 18.0589 53.5635 19.1036 53.5635C19.4021 53.5635 19.7006 53.2642 19.7006 52.9499V47.8013C19.7006 46.7387 20.611 45.8407 21.6557 45.8407C22.7005 45.8407 23.6258 46.7537 23.6258 47.8013V52.9499C23.4765 55.5242 21.5065 57.4998 19.1036 57.4998Z" fill="#23262F" fill-opacity="0.8"/>
<path d="M12.454 57.5C10.0362 57.5 8.08112 55.4882 8.08112 53.0345V40.0799C8.08112 38.9978 8.99152 38.0681 10.0512 38.0681H10.2004C11.2601 38.0681 12.1555 38.9978 12.1555 40.0799C12.1555 40.3847 12.1555 40.5371 12.0063 40.8572V53.0345C12.0063 53.3393 12.3048 53.6441 12.6033 53.6441C13.6629 53.6441 14.5584 54.5738 14.5584 55.6559C14.4092 56.5855 13.4988 57.5 12.4391 57.5H12.454Z" fill="#23262F" fill-opacity="0.8"/>
<path d="M77.404 57.5C76.3419 57.5 75.4444 56.5783 75.4444 55.5054C75.4444 54.4326 76.3569 53.526 77.404 53.526C77.7032 53.526 78.0024 53.2238 78.0024 52.9064V40.8333C77.8528 40.6822 77.8528 40.38 77.8528 40.0627C77.8528 38.9898 78.7653 38.0681 79.8125 38.0681H79.962C81.0241 38.0681 81.9217 38.9898 81.9217 40.0627V52.9064C81.7721 55.5054 79.7975 57.5 77.3891 57.5H77.404Z" fill="#23262F" fill-opacity="0.8"/>
<path d="M70.749 57.4998C68.3312 57.4998 66.376 55.4985 66.376 53.0575V47.842C66.376 46.7655 67.2864 45.8407 68.3461 45.8407C69.4057 45.8407 70.3012 46.7655 70.3012 47.842V53.0575C70.3012 53.3608 70.5997 53.664 70.8982 53.664C71.9579 53.664 72.8533 54.5888 72.8533 55.6653C72.7041 56.5901 71.7937 57.4998 70.734 57.4998H70.749Z" fill="#23262F" fill-opacity="0.8"/>
<path d="M21.035 40.6589C17.4979 40.6589 14.5577 37.7187 14.5577 34.1816C14.5577 30.6446 17.4979 27.7043 21.035 27.7043C24.572 27.7043 27.5123 30.6446 27.5123 34.1816C27.5123 37.7187 24.572 40.6589 21.035 40.6589ZM21.035 31.3869C19.5648 31.3869 18.2403 32.566 18.2403 34.1816C18.2403 35.7973 19.4193 36.9763 21.035 36.9763C22.5051 36.9763 23.8297 35.7973 23.8297 34.1816C23.8297 32.566 22.5051 31.3869 21.035 31.3869Z" fill="#23262F" fill-opacity="0.8"/>
<path d="M68.9656 40.6589C65.4286 40.6589 62.4883 37.7187 62.4883 34.1816C62.4883 30.6446 65.4286 27.7043 68.9656 27.7043C72.5027 27.7043 75.4429 30.6446 75.4429 34.1816C75.4429 37.7187 72.5027 40.6589 68.9656 40.6589ZM68.9656 31.3869C67.4955 31.3869 66.1709 32.566 66.1709 34.1816C66.1709 35.7973 67.3499 36.9763 68.9656 36.9763C70.4358 36.9763 71.7603 35.7973 71.7603 34.1816C71.7603 32.566 70.5813 31.3869 68.9656 31.3869Z" fill="#23262F" fill-opacity="0.8"/>
<path d="M64.3557 35.4769H25.6465C24.5597 35.4769 23.626 34.5756 23.626 33.5412C23.626 32.5068 24.5597 31.5906 25.6465 31.5906H64.3557C65.4425 31.5906 66.3761 32.492 66.3761 33.5412C66.3761 34.5903 65.4425 35.4769 64.3557 35.4769Z" fill="#23262F" fill-opacity="0.8"/>
<path d="M55.3071 28.9997H35.9898C34.9056 28.9997 33.9893 28.0983 33.9893 27.0639C33.9893 26.0295 34.9208 25.1133 35.9898 25.1133H55.3071C56.3913 25.1133 57.3076 26.0147 57.3076 27.0639C57.3076 28.113 56.2233 28.9997 55.3071 28.9997Z" fill="#23262F" fill-opacity="0.8"/>
<path d="M81.5968 25.1135H75.7687C73.4951 25.1135 71.5577 23.5333 71.5577 21.3695V19.7893C71.5577 17.7678 73.3349 16.0453 75.7687 16.0453H81.5968C83.8704 16.0453 85.8077 17.6255 85.8077 19.7893V21.3695C85.8077 23.391 83.8704 25.1135 81.5968 25.1135ZM75.7687 19.6469C75.6619 19.6469 75.6619 19.6469 75.7687 19.6469L75.6085 21.3695C75.6085 21.3695 75.6085 21.5118 75.7687 21.5118H81.5968C81.5968 21.5118 81.7569 21.5118 81.7569 21.3695V19.7893C81.7569 19.7893 81.7569 19.6469 81.5968 19.6469H75.7687Z" fill="#23262F" fill-opacity="0.8"/>
<path d="M14.2335 25.1135H8.40536C6.13176 25.1135 4.1944 23.5333 4.1944 21.3695V19.7893C4.1944 17.7678 5.97165 16.0453 8.40536 16.0453H14.2335C16.5071 16.0453 18.4444 17.6255 18.4444 19.7893V21.3695C18.4444 23.391 16.6672 25.1135 14.2335 25.1135ZM8.40536 19.6469L8.24525 21.3695C8.24525 21.3695 8.24525 21.5118 8.40536 21.5118H14.2335C14.2335 21.5118 14.3936 21.5118 14.3936 21.3695V19.7893C14.3936 19.7893 14.3936 19.6469 14.2335 19.6469H8.40536Z" fill="#23262F" fill-opacity="0.8"/>
<path d="M47.5521 12.9012C46.7405 12.1635 46.7405 11.0062 47.5521 10.2684L57.6886 1.05334C58.5002 0.315555 59.7891 0.315555 60.5848 1.05334C61.3963 1.79112 61.3963 2.94842 60.5848 3.6862L50.4482 12.9012C49.6367 13.639 48.3477 13.639 47.5521 12.9012Z" fill="#23262F" fill-opacity="0.8"/>
<path d="M38.4149 15.4286C37.6951 14.6059 37.6951 13.3155 38.4149 12.4929L43.8347 6.29887C44.5545 5.47622 45.6977 5.47622 46.4034 6.29887C47.1232 7.12151 47.1232 8.42805 46.4034 9.23456L40.9837 15.4286C40.1227 16.2512 39.1206 16.2512 38.4149 15.4286Z" fill="#23262F" fill-opacity="0.8"/>
<path d="M87.6684 57.4999H2.31625C1.2271 57.4999 0.306702 56.5985 0.306702 55.5493C0.306702 54.5002 1.24245 53.6135 2.31625 53.6135H87.6684C88.7575 53.6135 89.6933 54.5149 89.6933 55.5493C89.6933 56.5837 88.7575 57.4999 87.6684 57.4999Z" fill="#23262F" fill-opacity="0.8"/>
</svg>
