<svg width="82" height="66" viewBox="0 0 82 66" fill="none" xmlns="http://www.w3.org/2000/svg">
<path d="M29.0263 59.1099H9.0672V65.1774H29.0263V59.1099Z" fill="white"/>
<path d="M10.8236 60.7066H29.0263V59.1099H9.0672V65.0177H10.8236V60.7066Z" fill="white"/>
<path d="M72.9335 59.1099H52.9744V65.1774H72.9335V59.1099Z" fill="white"/>
<path d="M54.5712 60.7066H72.9335V59.1099H52.9744V65.0177H54.5712V60.7066Z" fill="white"/>
<path d="M80.9181 47.1348V59.1102H1.08185V47.1348H80.9181ZM75.0102 55.1184V51.1266H64.9508V55.1184H75.0102ZM60.959 55.1184V51.1266H50.8996V55.1184H60.959ZM27.1085 55.1184V51.1266H23.1166V55.1184H27.1085ZM19.1248 55.1184V51.1266H15.133V55.1184H19.1248ZM11.1412 55.1184V51.1266H7.1494V55.1184H11.1412Z" fill="#FFA500"/>
<path d="M2.83825 49.0508H80.9181V47.1348H1.08185V59.1102H2.83825V49.0508Z" fill="#FFA500"/>
<path d="M67.1862 30.2092C67.3459 30.6882 67.3459 31.3269 67.3459 31.9656C67.3459 32.6043 67.3459 33.243 67.1862 33.722C67.0266 34.201 66.8669 34.6801 66.5475 35.1591C66.2282 35.4784 65.9089 35.7978 65.5895 36.1171C65.2702 36.2768 64.7911 36.4365 64.3121 36.4365C63.8331 36.4365 63.5138 36.2768 63.0347 36.1171C62.7154 35.9574 62.3961 35.6381 62.0767 35.1591C61.7574 34.8397 61.5977 34.3607 61.438 33.722C61.2784 33.243 61.2784 32.6043 61.2784 31.9656C61.2784 31.3269 61.2784 30.6882 61.438 30.2092C61.5977 29.7302 61.7574 29.2512 62.0767 28.7722C62.3961 28.4528 62.7154 28.1335 63.0347 27.8141C63.3541 27.6545 63.8331 27.4948 64.3121 27.4948C64.7911 27.4948 65.1105 27.6545 65.5895 27.8141C65.9089 27.9738 66.2282 28.2932 66.5475 28.7722C66.8669 29.0915 67.0266 29.5705 67.1862 30.2092ZM51.5383 28.7722C51.219 28.4528 50.8996 28.1335 50.5803 27.8141C50.261 27.6545 49.7819 27.4948 49.3029 27.4948C48.8239 27.4948 48.5046 27.6545 48.0255 27.8141C47.7062 27.9738 47.3869 28.2932 47.0675 28.7722C46.7482 29.0915 46.5885 29.5705 46.4288 30.2092C46.2691 30.6882 46.2691 31.3269 46.2691 31.9656C46.2691 32.6043 46.2691 33.243 46.4288 33.722C46.5885 34.201 46.7482 34.6801 47.0675 35.1591C47.3869 35.4784 47.7062 35.7978 48.0255 36.1171C48.3449 36.4365 48.8239 36.4365 49.3029 36.4365C49.7819 36.4365 50.1013 36.2768 50.5803 36.1171C50.8996 35.9574 51.219 35.6381 51.5383 35.1591C51.8577 34.8397 52.0174 34.3607 52.177 33.722C52.3367 33.243 52.3367 32.6043 52.3367 31.9656C52.3367 31.3269 52.3367 30.6882 52.177 30.2092C52.0174 29.5705 51.8577 29.0915 51.5383 28.7722ZM80.9181 17.1161V46.9748H1.08185V17.1161H80.9181ZM21.5199 36.1171H18.4861V25.0997H15.133C14.9733 25.2594 14.8137 25.4191 14.4943 25.7384C14.175 26.0577 13.8556 26.2174 13.3766 26.5368C12.8976 26.8561 12.5783 27.0158 12.0992 27.1755C11.7799 27.3351 11.4606 27.4948 11.1412 27.4948V30.5286C11.4606 30.5286 11.7799 30.5286 12.2589 30.3689C12.5783 30.2092 13.0573 30.0496 13.3766 29.8899C13.696 29.7302 14.175 29.5705 14.3347 29.2512C14.654 29.0915 14.8137 28.7722 14.9734 28.6125V35.9574H11.4606V38.8315H21.3602V36.1171H21.5199ZM34.7727 36.1171H27.4278C27.5875 35.7978 27.9068 35.6381 28.0665 35.3187C28.3858 34.9994 28.7052 34.8397 29.0245 34.5204C29.3439 34.201 29.8229 34.0414 30.1422 33.8817C30.4616 33.722 30.7809 33.5623 31.1003 33.243C31.4196 33.0833 31.8986 32.764 32.218 32.6043C32.5373 32.285 33.0163 32.1253 33.3357 31.6463C33.655 31.3269 33.9744 30.8479 34.134 30.5286C34.2937 30.0496 34.4534 29.5705 34.4534 29.0915C34.4534 28.4528 34.2937 27.9738 34.134 27.4948C33.9744 27.0158 33.4953 26.5368 33.176 26.2174C32.697 25.8981 32.218 25.5787 31.5793 25.4191C30.9406 25.2594 30.1422 25.0997 29.3439 25.0997C28.5455 25.0997 27.9068 25.0997 27.2681 25.2594C26.6294 25.4191 25.9907 25.5787 25.5117 25.8981C25.0327 26.0577 24.5537 26.3771 24.0747 26.6964C23.7553 27.0158 23.436 27.1755 23.1166 27.4948L25.1924 29.8899C25.3521 29.5705 25.6714 29.4109 25.8311 29.2512C25.9907 29.0915 26.3101 28.7722 26.6294 28.6125C26.9488 28.4528 27.2681 28.2932 27.5875 28.1335C27.9068 27.9738 28.2262 27.9738 28.7052 27.9738C29.5035 27.9738 29.9826 28.1335 30.4616 28.4528C30.7809 28.7722 31.1003 29.2512 31.1003 29.7302C31.1003 30.0496 30.9406 30.3689 30.7809 30.5286C30.6212 30.6882 30.3019 31.0076 29.9826 31.1673C29.6632 31.3269 29.1842 31.6463 28.7052 31.9656C28.2262 32.285 27.5875 32.6043 26.9488 32.9237C26.1504 33.4027 25.5117 33.722 25.0327 34.201C24.5537 34.6801 24.0747 35.1591 23.915 35.6381C23.5957 36.1171 23.436 36.7558 23.2763 37.2348C23.1166 37.8735 23.1166 38.5122 23.1166 39.1509H34.9324V36.1171H34.7727ZM40.2016 35.4784H37.4872V38.9912H40.2016V35.4784ZM40.2016 26.3771H37.4872V29.8899H40.2016V26.3771ZM55.6898 31.9656C55.6898 30.8479 55.5301 29.8899 55.2108 28.9319C54.8915 27.9738 54.4124 27.1755 53.9334 26.5368C53.2947 25.8981 52.656 25.4191 51.8577 24.94C51.0593 24.6207 50.261 24.3013 49.3029 24.3013C48.3449 24.3013 47.5465 24.461 46.7482 24.94C45.9498 25.2594 45.3111 25.8981 44.8321 26.5368C44.1934 27.1755 43.8741 27.9738 43.5547 28.9319C43.2354 29.8899 43.0757 30.8479 43.0757 31.9656C43.0757 33.0833 43.2354 34.0414 43.5547 34.9994C43.8741 35.9574 44.3531 36.7558 44.8321 37.3945C45.4708 38.0332 46.1095 38.5122 46.7482 38.9912C47.5465 39.3106 48.3449 39.4702 49.3029 39.4702C50.261 39.4702 51.0593 39.3106 51.8577 38.9912C52.656 38.6719 53.2947 38.1929 53.9334 37.3945C54.5721 36.7558 54.8915 35.9574 55.2108 34.9994C55.5301 34.0414 55.6898 32.9237 55.6898 31.9656ZM70.699 31.9656C70.699 30.8479 70.5394 29.8899 70.22 28.9319C69.9007 27.9738 69.4216 27.1755 68.9426 26.5368C68.3039 25.8981 67.6652 25.4191 66.8669 24.94C66.0685 24.6207 65.2702 24.3013 64.3121 24.3013C63.3541 24.3013 62.5557 24.461 61.7574 24.94C60.959 25.2594 60.3203 25.8981 59.8413 26.5368C59.2026 27.1755 58.8833 27.9738 58.5639 28.9319C58.2446 29.8899 58.0849 30.8479 58.0849 31.9656C58.0849 33.0833 58.2446 34.0414 58.5639 34.9994C58.8833 35.9574 59.3623 36.7558 59.8413 37.3945C60.48 38.0332 61.1187 38.5122 61.7574 38.9912C62.5557 39.3106 63.3541 39.4702 64.3121 39.4702C65.2702 39.4702 66.0685 39.3106 66.8669 38.9912C67.6652 38.6719 68.3039 38.1929 68.9426 37.3945C69.5813 36.7558 69.9007 35.9574 70.22 34.9994C70.5394 34.0414 70.699 32.9237 70.699 31.9656Z" fill="white"/>
<path d="M3.95595 19.9902H43.8741H80.9181V17.1161H41H1.08185V47.1345H3.95595V19.9902Z" fill="white"/>
<path d="M75.0104 51.126H64.951V55.1178H75.0104V51.126Z" fill="#23262F" fill-opacity="0.8"/>
<path d="M70.2189 28.9317C70.5383 29.8897 70.6979 30.8477 70.6979 31.9654C70.6979 33.0831 70.5383 34.0412 70.2189 34.9992C69.8996 35.9572 69.4205 36.7556 68.9415 37.3943C68.3028 38.033 67.6641 38.512 66.8658 38.991C66.0674 39.3104 65.2691 39.47 64.311 39.47C63.353 39.47 62.5546 39.3104 61.7563 38.991C60.9579 38.6717 60.3192 38.1926 59.8402 37.3943C59.2015 36.7556 58.8822 35.9572 58.5628 34.9992C58.2435 34.0412 58.0838 33.0831 58.0838 31.9654C58.0838 30.8477 58.2435 29.8897 58.5628 28.9317C58.8822 27.9736 59.3612 27.1753 59.8402 26.5366C60.4789 25.8979 61.1176 25.4189 61.7563 24.9398C62.5546 24.6205 63.353 24.3011 64.311 24.3011C65.2691 24.3011 66.0674 24.4608 66.8658 24.9398C67.6641 25.2592 68.3028 25.8979 68.9415 26.5366C69.4205 27.3349 69.8996 28.1333 70.2189 28.9317ZM67.3448 31.9654C67.3448 31.3267 67.3448 30.688 67.1851 30.209C67.0255 29.73 66.8658 29.251 66.5464 28.772C66.2271 28.4526 65.9077 28.1333 65.5884 27.8139C65.2691 27.6543 64.79 27.4946 64.311 27.4946C63.832 27.4946 63.5127 27.6543 63.0336 27.8139C62.7143 27.9736 62.395 28.293 62.0756 28.772C61.7563 29.0913 61.5966 29.5703 61.4369 30.209C61.2772 30.688 61.2772 31.3267 61.2772 31.9654C61.2772 32.6041 61.2772 33.2428 61.4369 33.7218C61.5966 34.2008 61.7563 34.6799 62.0756 35.1589C62.395 35.4782 62.7143 35.7976 63.0336 36.1169C63.353 36.2766 63.832 36.4362 64.311 36.4362C64.79 36.4362 65.1094 36.2766 65.5884 36.1169C65.9077 35.9572 66.2271 35.6379 66.5464 35.1589C66.8658 34.8395 67.0255 34.3605 67.1851 33.7218C67.3448 33.2428 67.3448 32.6041 67.3448 31.9654Z" fill="#23262F" fill-opacity="0.8"/>
<path d="M61.1197 51.126H51.0604V55.1178H61.1197V51.126Z" fill="#23262F" fill-opacity="0.8"/>
<path d="M55.2111 28.9317C55.5304 29.8897 55.6901 30.8477 55.6901 31.9654C55.6901 33.0831 55.5304 34.0412 55.2111 34.9992C54.8918 35.9572 54.4127 36.7556 53.9337 37.3943C53.295 38.033 52.6563 38.512 51.858 38.991C51.0596 39.3104 50.2612 39.47 49.3032 39.47C48.3452 39.47 47.5468 39.3104 46.7485 38.991C45.9501 38.6717 45.3114 38.1926 44.8324 37.3943C44.1937 36.7556 43.8743 35.9572 43.555 34.9992C43.2357 34.0412 43.076 33.0831 43.076 31.9654C43.076 30.8477 43.2357 29.8897 43.555 28.9317C43.8743 27.9736 44.3534 27.1753 44.8324 26.5366C45.4711 25.8979 46.1098 25.4189 46.7485 24.9398C47.5468 24.6205 48.3452 24.3011 49.3032 24.3011C50.2612 24.3011 51.0596 24.4608 51.858 24.9398C52.6563 25.2592 53.295 25.8979 53.9337 26.5366C54.4127 27.3349 54.8918 28.1333 55.2111 28.9317ZM52.4967 31.9654C52.4967 31.3267 52.4967 30.688 52.337 30.209C52.1773 29.73 52.0176 29.251 51.6983 28.772C51.379 28.4526 51.0596 28.1333 50.7403 27.8139C50.4209 27.6543 49.9419 27.4946 49.4629 27.4946C48.9839 27.4946 48.6645 27.6543 48.1855 27.8139C47.8662 27.9736 47.5468 28.293 47.2275 28.772C46.9081 29.0913 46.7485 29.5703 46.5888 30.209C46.4291 30.688 46.4291 31.3267 46.4291 31.9654C46.4291 32.6041 46.4291 33.2428 46.5888 33.7218C46.7485 34.2008 46.9081 34.6799 47.2275 35.1589C47.5468 35.4782 47.8662 35.7976 48.1855 36.1169C48.5049 36.4363 48.9839 36.4362 49.4629 36.4362C49.9419 36.4362 50.2612 36.2766 50.7403 36.1169C51.0596 35.9572 51.379 35.6379 51.6983 35.1589C52.0176 34.8395 52.1773 34.3605 52.337 33.7218C52.337 33.2428 52.4967 32.6041 52.4967 31.9654Z" fill="#23262F" fill-opacity="0.8"/>
<path d="M40.3627 35.4784H37.6483V38.9912H40.3627V35.4784Z" fill="#23262F" fill-opacity="0.8"/>
<path d="M40.3627 26.3773H37.6483V29.8901H40.3627V26.3773Z" fill="#23262F" fill-opacity="0.8"/>
<path d="M34.7726 36.1166V38.9907H22.9568C22.9568 38.1924 22.9568 37.5537 23.1165 37.0747C23.2762 36.436 23.4359 35.957 23.7552 35.478C24.0746 34.9989 24.3939 34.5199 24.8729 34.0409C25.3519 33.5619 25.9906 33.2425 26.789 32.7635C27.4277 32.4442 28.0664 32.1248 28.5454 31.8055C29.0244 31.4861 29.5034 31.3265 29.8228 31.0071C30.1421 30.8475 30.4614 30.5281 30.6211 30.3684C30.7808 30.2088 30.9405 29.8894 30.9405 29.5701C30.9405 29.0911 30.7808 28.612 30.3018 28.2927C29.9824 27.9733 29.3437 27.8137 28.5454 27.8137C28.226 27.8137 27.747 27.8137 27.4277 27.9733C27.1083 28.133 26.789 28.2927 26.4696 28.4524C26.1503 28.612 25.9906 28.7717 25.6713 29.0911C25.5116 29.2507 25.1923 29.5701 25.0326 29.7297L22.9568 27.3347C23.1165 27.175 23.4359 26.8556 23.9149 26.5363C24.2342 26.217 24.7132 26.0573 25.3519 25.7379C25.831 25.5783 26.4696 25.2589 27.1083 25.0992C27.747 24.9396 28.3857 24.9396 29.1841 24.9396C29.9824 24.9396 30.7808 25.0992 31.4195 25.2589C32.0582 25.4186 32.6969 25.7379 33.0162 26.0573C33.4952 26.3766 33.8146 26.8556 33.9742 27.3347C34.1339 27.8137 34.2936 28.4524 34.2936 28.9314C34.2936 29.5701 34.1339 30.0491 33.9742 30.3684C33.8146 30.8475 33.4952 31.1668 33.1759 31.4861C32.8565 31.8055 32.5372 32.1248 32.0582 32.4442C31.7388 32.7635 31.2598 32.9232 30.9405 33.0829C30.6211 33.2425 30.3018 33.4022 29.9824 33.7216C29.6631 33.8812 29.1841 34.2006 28.8647 34.3602C28.5454 34.6796 28.226 34.8393 27.9067 35.1586C27.5873 35.478 27.4277 35.6376 27.268 35.957L34.7726 36.1166Z" fill="#23262F" fill-opacity="0.8"/>
<path d="M27.1078 51.126H23.116V55.1178H27.1078V51.126Z" fill="#23262F" fill-opacity="0.8"/>
<path d="M21.5201 36.1173V38.9914H11.6204V36.1173H15.1332V28.7723C14.9736 28.932 14.8139 29.0917 14.4945 29.411C14.1752 29.5707 13.8559 29.7304 13.3768 30.0497C13.0575 30.2094 12.5785 30.369 12.2591 30.5287C11.7801 30.6884 11.4608 30.6884 11.1414 30.6884V27.4949C11.4608 27.4949 11.7801 27.3353 12.2591 27.1756C12.7381 27.0159 13.0575 26.6966 13.5365 26.5369C14.0155 26.2176 14.3349 26.0579 14.6542 25.7385C14.9736 25.4192 15.1332 25.2595 15.2929 25.0999H18.646V36.1173H21.5201Z" fill="#23262F" fill-opacity="0.8"/>
<path d="M19.1264 51.126H15.1346V55.1178H19.1264V51.126Z" fill="#23262F" fill-opacity="0.8"/>
<path d="M11.141 51.126H7.14923V55.1178H11.141V51.126Z" fill="#23262F" fill-opacity="0.8"/>
<path d="M80.9181 48.0924C80.4391 48.0924 79.96 47.6134 79.96 47.1344V18.074H2.03991V46.9747C2.03991 47.4538 1.56089 47.9328 1.08188 47.9328C0.602858 47.9328 0.12384 47.4538 0.12384 46.9747V17.116C0.12384 16.637 0.602858 16.158 1.08188 16.158H80.9181C81.3971 16.158 81.8761 16.637 81.8761 17.116V46.9747C81.8761 47.6134 81.3971 48.0924 80.9181 48.0924Z" fill="#23262F" fill-opacity="0.8"/>
<path d="M80.9181 60.0679H72.9345C72.4554 60.0679 71.9764 59.5889 71.9764 59.1099C71.9764 58.6308 72.4554 58.1518 72.9345 58.1518H79.96V48.0925H2.03991V58.1518H9.0655C9.54451 58.1518 10.0235 58.6308 10.0235 59.1099C10.0235 59.5889 9.54451 60.0679 9.0655 60.0679H1.08188C0.602858 60.0679 0.12384 59.5889 0.12384 59.1099V47.1344C0.12384 46.6554 0.602858 46.1764 1.08188 46.1764H80.9181C81.3971 46.1764 81.8761 46.6554 81.8761 47.1344V59.1099C81.8761 59.5889 81.3971 60.0679 80.9181 60.0679Z" fill="#23262F" fill-opacity="0.8"/>
<path d="M52.9761 60.0679H29.0252C28.5462 60.0679 28.0672 59.5889 28.0672 59.1099C28.0672 58.6309 28.5462 58.1519 29.0252 58.1519H52.9761C53.4551 58.1519 53.9341 58.6309 53.9341 59.1099C53.9341 59.5889 53.4551 60.0679 52.9761 60.0679Z" fill="#23262F" fill-opacity="0.8"/>
<path d="M29.0243 65.9754H9.06527C8.58626 65.9754 8.10724 65.4964 8.10724 65.0174V58.9499C8.10724 58.4708 8.58626 57.9918 9.06527 57.9918H29.0243C29.5033 57.9918 29.9824 58.4708 29.9824 58.9499V65.0174C29.9824 65.4964 29.5033 65.9754 29.0243 65.9754ZM10.0233 64.0594H28.0663V60.0676H10.0233V64.0594Z" fill="#23262F" fill-opacity="0.8"/>
<path d="M72.9345 65.9754H52.9754C52.4964 65.9754 52.0174 65.4964 52.0174 65.0174V58.9499C52.0174 58.4708 52.4964 57.9918 52.9754 57.9918H72.9345C73.4135 57.9918 73.8925 58.4708 73.8925 58.9499V65.0174C73.8925 65.4964 73.4135 65.9754 72.9345 65.9754ZM53.9335 64.0594H71.9764V60.0676H53.9335V64.0594Z" fill="#23262F" fill-opacity="0.8"/>
<path d="M40.9988 18.0739C40.8391 18.0739 40.6794 18.0739 40.5198 17.9142L12.5771 1.94695C12.0981 1.62761 11.9384 0.988919 12.2578 0.509902C12.5771 0.0308846 13.2158 -0.128789 13.6948 0.190556L41.1585 15.8385L60.6385 4.18237C61.1175 3.86302 61.7562 4.02269 62.0755 4.50171C62.3949 4.98073 62.2352 5.61942 61.7562 5.93876L41.4778 17.9142C41.3181 18.0739 41.1585 18.0739 40.9988 18.0739Z" fill="#23262F" fill-opacity="0.8"/>
</svg>
