<svg width="86" height="58" viewBox="0 0 86 58" fill="none" xmlns="http://www.w3.org/2000/svg">
<path d="M11.1179 15.6567V29.5464H1.06097V6.55001C1.06097 3.84176 3.29409 1.60864 6.01818 1.60864C7.45941 1.60864 8.56805 2.24215 9.53415 3.04987C10.4844 4.00014 10.9754 5.12462 10.9754 6.56585V15.6725H11.1338L11.1179 15.6567Z" fill="white"/>
<path d="M23.0917 23.1639V29.5465H11.1184V15.4984H15.5846C19.5757 15.6568 23.0917 19.0144 23.0917 23.1639Z" fill="#FFA500"/>
<path d="M74.9928 29.5463H34.1157V20.598H66.0603C71.0017 20.598 75.0086 24.5891 75.0086 29.5463H74.9928Z" fill="#FFA500"/>
<path d="M77.0821 50.4681H66.059V56.534H77.0821V50.4681Z" fill="white"/>
<path d="M20.0663 50.4681H9.04321V56.534H20.0663V50.4681Z" fill="white"/>
<path d="M84.89 36.5782H1.06097V41.5354H84.89V36.5782Z" fill="#FFA500"/>
<path d="M84.89 41.5199V50.4682H1.06097V41.5199H84.89Z" fill="white"/>
<path d="M84.89 34.0286V36.5785H1.06097V29.5465H80.4237C82.9736 29.5465 84.89 31.6212 84.89 34.0127V34.0286Z" fill="white"/>
<path d="M9.04404 51.5924H1.06184C0.586704 51.5924 0.111572 51.1173 0.111572 50.6422V29.5622C0.111572 29.087 0.586704 28.5961 1.06184 28.5961C1.53697 28.5961 2.02793 29.0712 2.02793 29.5622V49.5177H9.05988C9.53501 49.5177 10.026 49.9928 10.026 50.4679C10.1844 51.1015 9.70922 51.5924 9.05988 51.5924H9.04404Z" fill="#23262F" fill-opacity="0.8"/>
<path d="M66.0604 51.5926H20.0677C19.5926 51.5926 19.1174 51.1175 19.1174 50.6424C19.1174 50.1672 19.5926 49.6763 20.0677 49.6763H66.0604C66.5355 49.6763 67.0107 50.1514 67.0107 50.6424C67.0107 51.1333 66.5355 51.5926 66.0604 51.5926Z" fill="#23262F" fill-opacity="0.8"/>
<path d="M84.8916 51.5925H76.9094C76.4343 51.5925 75.9592 51.1174 75.9592 50.6422C75.9592 50.1671 76.4343 49.6761 76.9094 49.6761H83.9414V34.1868C83.9414 32.2705 82.3418 30.6709 80.4254 30.6709H74.8347C74.3596 30.6709 73.8686 30.1957 73.8686 29.7048C73.8686 29.2138 74.3437 28.7545 74.8347 28.7545H80.4254C83.4662 28.7545 85.8577 31.146 85.8577 34.1868V50.6264C86.0161 51.1015 85.541 51.5767 84.8916 51.5767V51.5925Z" fill="#23262F" fill-opacity="0.8"/>
<path d="M34.1163 30.5124H23.0933C22.6182 30.5124 22.1272 30.0373 22.1272 29.5622C22.1272 29.087 22.6023 28.5961 23.0933 28.5961H34.1163C34.5915 28.5961 35.0824 29.0712 35.0824 29.5622C35.0824 30.0531 34.6073 30.5124 34.1163 30.5124Z" fill="#23262F" fill-opacity="0.8"/>
<path d="M11.1188 30.5125H1.06184C0.586704 30.5125 0.111572 30.0373 0.111572 29.5622V6.56584C0.111572 3.20825 2.81982 0.5 6.17741 0.5C7.77702 0.5 9.21825 1.1335 10.4853 2.25798C11.6097 3.38246 12.2433 4.96623 12.2433 6.56584V15.5141C12.2433 15.9893 11.7681 16.4644 11.293 16.4644C10.8179 16.4644 10.3269 15.9893 10.3269 15.5141V6.56584C10.3269 5.44136 9.85176 4.4911 9.20242 3.69921C8.41053 2.90733 7.44443 2.57474 6.31995 2.57474C4.08684 2.57474 2.32885 4.33272 2.32885 6.56584V28.5961H11.2772C11.7523 28.5961 12.2274 29.0712 12.2274 29.5622C12.2274 30.0532 11.5939 30.5125 11.1029 30.5125H11.1188Z" fill="#23262F" fill-opacity="0.8"/>
<path d="M84.8908 37.5284H1.06184C0.586704 37.5284 0.111572 37.0533 0.111572 36.5623C0.111572 36.0714 0.586704 35.6121 1.06184 35.6121H84.8908C85.366 35.6121 85.8411 36.0872 85.8411 36.5623C85.9995 37.0375 85.5243 37.5284 84.8908 37.5284Z" fill="#23262F" fill-opacity="0.8"/>
<path d="M84.8908 42.4858H1.06184C0.586704 42.4858 0.111572 42.0107 0.111572 41.5197C0.111572 41.0288 0.586704 40.5695 1.06184 40.5695H84.8908C85.366 40.5695 85.8411 41.0446 85.8411 41.5197C85.9995 41.9949 85.5243 42.4858 84.8908 42.4858Z" fill="#23262F" fill-opacity="0.8"/>
<path d="M23.0918 30.5126H11.1185C10.6433 30.5126 10.1682 30.0375 10.1682 29.5624V15.5143C10.1682 15.0392 10.6433 14.5482 11.1185 14.5482H15.5847C20.3677 14.5482 24.2004 18.3809 24.2004 23.1639V29.5465C24.042 30.0217 23.5669 30.4968 23.0918 30.4968V30.5126ZM12.0687 28.5963H22.1257V23.1639C22.1257 19.4896 19.1007 16.623 15.5847 16.623H12.0687V28.5963Z" fill="#23262F" fill-opacity="0.8"/>
<path d="M20.0654 57.4999C19.5902 57.4999 19.1151 57.0248 19.1151 56.5497V51.5925H10.1668V56.5497C10.1668 57.0248 9.69166 57.4999 9.21653 57.4999C8.7414 57.4999 8.25043 57.0248 8.25043 56.5497V50.4838C8.25043 50.0087 8.72556 49.5336 9.21653 49.5336H20.0812C20.5563 49.5336 21.0315 50.0087 21.0315 50.4838V56.5497C21.0315 57.0248 20.5563 57.4999 20.0812 57.4999H20.0654Z" fill="#23262F" fill-opacity="0.8"/>
<path d="M76.9089 57.4999C76.4338 57.4999 75.9587 57.0248 75.9587 56.5497V51.5925H67.0104V56.5497C67.0104 57.0248 66.5352 57.4999 66.0601 57.4999C65.585 57.4999 65.094 57.0248 65.094 56.5497V50.4838C65.094 50.0087 65.5691 49.5336 66.0601 49.5336H77.0831C77.5583 49.5336 78.0492 50.0087 78.0492 50.4838V56.5497C78.0492 57.0248 77.5741 57.4999 76.9248 57.4999H76.9089Z" fill="#23262F" fill-opacity="0.8"/>
<path d="M74.9938 30.5126H34.1167C33.6416 30.5126 33.1664 30.0375 33.1664 29.5624V20.614C33.1664 20.1389 33.6416 19.6479 34.1167 19.6479H66.0614C71.4937 19.6479 76.1183 24.1142 76.1183 29.7049C75.9599 30.0216 75.4848 30.4968 74.9938 30.4968V30.5126ZM35.067 28.5963H73.8694C73.3942 24.6051 70.0366 21.5643 65.8872 21.5643H35.067V28.5963Z" fill="#23262F" fill-opacity="0.8"/>
<path d="M79.9486 57.4999H5.05207C4.57694 57.4999 4.10181 57.0248 4.10181 56.5496C4.10181 56.0745 4.57694 55.5994 5.05207 55.5994H79.9486C80.4237 55.5994 80.8989 56.0745 80.8989 56.5496C80.8989 57.0248 80.4237 57.4999 79.9486 57.4999Z" fill="#23262F" fill-opacity="0.8"/>
</svg>
