<svg width="70" height="58" viewBox="0 0 70 58" fill="none" xmlns="http://www.w3.org/2000/svg">
<path d="M62.0668 1.35449H7.91124C4.95686 1.35449 2.62514 3.69846 2.62514 6.65284V42.3496C2.62514 45.304 4.95686 47.6358 7.91124 47.6358H62.0668C65.0212 47.6358 67.3652 45.304 67.3652 42.3496V6.65284C67.3652 3.69846 64.8991 1.35449 62.0668 1.35449Z" fill="#FFA500"/>
<path d="M8.03237 42.0931V38.2841V16.0042V12.9277V9.85123V6.77478H21.205H50.3704H61.9437V9.85123V12.9277V16.0042V38.2841V42.0931H8.03237Z" fill="white"/>
<path d="M28.8356 47.5138H41.642V48.0021C41.642 49.4793 40.5311 50.5902 39.176 50.5902H30.8011C29.446 50.5902 28.3351 49.4793 28.3351 48.0021V47.5138H28.8234H28.8356Z" fill="white"/>
<path d="M62.0655 47.5138H68.8411C68.8411 52.5558 64.8978 56.7432 59.9779 56.7432H10.0098C7.54373 56.7432 5.33403 55.7543 3.73476 54.033C2.13549 52.3116 1.14663 50.0897 1.14663 47.5138H28.3465V48.0021C28.3465 49.4793 29.4574 50.5902 30.8125 50.5902H39.1874C40.5425 50.5902 41.6534 49.4793 41.6534 48.0021V47.5138H62.0899H62.0655Z" fill="#FFA500"/>
<path d="M42.74 20.558V30.5321L39.6635 27.4556L36.5871 30.5321V20.558V17.4816H42.74V20.558Z" fill="white"/>
<path d="M59.978 57.4878H10.0098C7.42169 57.4878 4.96787 56.499 3.24652 54.5335C1.40308 52.69 0.414207 50.1019 0.414207 47.5138C0.414207 47.1475 0.780435 46.7813 1.15889 46.7813H7.9222C8.28845 46.7813 8.66696 47.1475 8.66696 47.5138C8.66696 47.88 8.42274 48.2584 7.9222 48.2584H1.89135C2.01343 50.224 2.88027 52.0674 4.23538 53.4225C5.71257 55.0218 7.80011 55.8886 9.89992 55.8886H59.9902C64.1776 55.8886 67.6203 52.4459 67.9865 48.1364H62.0778C61.7116 48.1364 61.3453 47.7701 61.3453 47.4039C61.3453 47.0377 61.7116 46.6592 62.0778 46.6592H68.8533C69.2196 46.6592 69.5858 47.0254 69.5858 47.4039C69.5858 53.0685 65.2763 57.5001 59.9902 57.5001L59.978 57.4878Z" fill="#23262F" fill-opacity="0.8"/>
<path d="M39.1761 51.3348H30.8012C29.0799 51.3348 27.6027 49.8576 27.6027 48.0142V47.5258C27.6027 47.1596 27.969 46.7933 28.3352 46.7933C28.7015 46.7933 29.0799 47.1596 29.0799 47.5258V48.0142C29.0799 49.003 29.8124 49.8576 30.8012 49.8576H39.1761C40.165 49.8576 40.8974 48.9908 40.8974 48.0142V47.5258C40.8974 47.1596 41.2637 46.7933 41.63 46.7933C41.9962 46.7933 42.3746 47.1596 42.3746 47.5258V48.0142C42.3746 49.8576 40.8975 51.3348 39.1761 51.3348Z" fill="#23262F" fill-opacity="0.8"/>
<path d="M61.9448 42.838H49.6389C49.2727 42.838 48.8942 42.4717 48.8942 42.0933C48.8942 41.7148 49.2605 41.3608 49.6389 41.3608H61.2123V7.50745H8.90014V41.3608H19.7289C20.0951 41.3608 20.4736 41.727 20.4736 42.0933C20.4736 42.4595 20.1073 42.838 19.7289 42.838H8.15546C7.78921 42.838 7.423 42.4717 7.423 42.0933V6.76277C7.423 6.39653 7.78921 6.03027 8.15546 6.03027H62.0669C62.4331 6.03027 62.8116 6.39653 62.8116 6.76277V42.0933C62.6895 42.4595 62.3232 42.838 61.9448 42.838Z" fill="#23262F" fill-opacity="0.8"/>
<path d="M62.0655 48.2584H49.6376C49.2713 48.2584 48.8928 47.8922 48.8928 47.5138C48.8928 47.1353 49.2591 46.7813 49.6376 46.7813H62.0655C64.5316 46.7813 66.4971 44.8157 66.4971 42.3497V6.65294C66.4971 4.18688 64.5316 2.22136 62.0655 2.22136H7.9099C5.44385 2.22136 3.4784 4.18688 3.4784 6.65294V42.3497C3.4784 44.8157 5.44385 46.7813 7.9099 46.7813H19.6054C19.9716 46.7813 20.3379 47.1475 20.3379 47.5138C20.3379 47.88 19.9716 48.2584 19.6054 48.2584H7.9099C4.58927 48.2584 1.87905 45.5482 1.87905 42.2276V6.53085C1.87905 3.21022 4.58927 0.5 7.9099 0.5H62.0655C65.3861 0.5 68.0964 3.21022 68.0964 6.53085V42.2276C68.0964 45.5482 65.3861 48.2584 62.0655 48.2584Z" fill="#23262F" fill-opacity="0.8"/>
<path d="M44.9632 45.1818H28.8361C28.4699 45.1818 28.1037 44.8155 28.1037 44.4371C28.1037 44.0586 28.4699 43.7046 28.8361 43.7046H44.9632C45.3294 43.7046 45.6956 44.0708 45.6956 44.4371C45.6956 44.8033 45.4515 45.1818 44.9632 45.1818Z" fill="#23262F" fill-opacity="0.8"/>
<path d="M46.5606 42.093H43.4841C43.1178 42.093 42.7394 41.7268 42.7394 41.3606C42.7394 40.9943 43.1056 40.6281 43.4841 40.6281H46.5606C46.9268 40.6281 47.293 40.9943 47.293 41.3606C47.293 41.7268 46.9268 42.093 46.5606 42.093Z" fill="#23262F" fill-opacity="0.8"/>
<path d="M46.5606 39.7614H43.4841C43.1178 39.7614 42.7394 39.3951 42.7394 39.0289C42.7394 38.6626 43.1056 38.2842 43.4841 38.2842H46.5606C46.9268 38.2842 47.293 38.6504 47.293 39.0289C47.293 39.4073 46.9268 39.7614 46.5606 39.7614Z" fill="#23262F" fill-opacity="0.8"/>
<path d="M17.2629 10.5962H8.03346C7.66722 10.5962 7.30093 10.23 7.30093 9.85152C7.30093 9.47306 7.66722 9.11902 8.03346 9.11902H17.2629C17.6291 9.11902 18.0075 9.48527 18.0075 9.85152C18.1296 10.2178 17.7634 10.5962 17.2629 10.5962Z" fill="#23262F" fill-opacity="0.8"/>
<path d="M15.7856 13.6728H8.03346C7.66722 13.6728 7.30093 13.3065 7.30093 12.9281C7.30093 12.5496 7.66722 12.1956 8.03346 12.1956H15.7856C16.1519 12.1956 16.5303 12.5618 16.5303 12.9281C16.5303 13.2943 16.1641 13.6728 15.7856 13.6728Z" fill="#23262F" fill-opacity="0.8"/>
<path d="M14.1864 16.749H8.03346C7.66722 16.749 7.30093 16.3828 7.30093 16.0043C7.30093 15.6259 7.66722 15.2719 8.03346 15.2719H14.1864C14.5526 15.2719 14.931 15.6381 14.931 16.0043C15.0531 16.3706 14.6869 16.749 14.1864 16.749Z" fill="#23262F" fill-opacity="0.8"/>
<path d="M61.943 10.5962H52.7136C52.3473 10.5962 51.9689 10.23 51.9689 9.85152C51.9689 9.47306 52.3351 9.11902 52.7136 9.11902H61.943C62.3092 9.11902 62.6877 9.48527 62.6877 9.85152C62.6877 10.2178 62.3214 10.5962 61.943 10.5962Z" fill="#23262F" fill-opacity="0.8"/>
<path d="M61.9443 13.6728H54.1921C53.8259 13.6728 53.4474 13.3065 53.4474 12.9281C53.4474 12.5496 53.8136 12.1956 54.1921 12.1956H61.9443C62.3105 12.1956 62.689 12.5618 62.689 12.9281C62.689 13.2943 62.3227 13.6728 61.9443 13.6728Z" fill="#23262F" fill-opacity="0.8"/>
<path d="M61.9431 16.749H55.7902C55.424 16.749 55.0578 16.3828 55.0578 16.0043C55.0578 15.6259 55.424 15.2719 55.7902 15.2719H61.9431C62.3094 15.2719 62.6879 15.6381 62.6879 16.0043C62.6879 16.3706 62.3216 16.749 61.9431 16.749Z" fill="#23262F" fill-opacity="0.8"/>
<path d="M61.9434 39.0292H53.4466C53.0803 39.0292 52.714 38.663 52.714 38.2845C52.714 37.906 53.0803 37.552 53.4466 37.552H61.9434C62.3097 37.552 62.6882 37.9183 62.6882 38.2845C62.6882 38.6507 62.3219 39.0292 61.9434 39.0292Z" fill="#23262F" fill-opacity="0.8"/>
<path d="M16.5303 39.0292H8.03346C7.66722 39.0292 7.30093 38.663 7.30093 38.2845C7.30093 37.906 7.66722 37.552 8.03346 37.552H16.5303C16.8966 37.552 17.2629 37.9183 17.2629 38.2845C17.2629 38.6507 16.8966 39.0292 16.5303 39.0292Z" fill="#23262F" fill-opacity="0.8"/>
</svg>
