<svg width="46" height="58" viewBox="0 0 46 58" fill="none" xmlns="http://www.w3.org/2000/svg">
<path d="M44.7094 51.8495H1.29034V56.806H44.7094V51.8495Z" fill="white"/>
<path d="M2.47991 53.1382H44.7094V51.8495H1.29034V56.806H2.47991V53.1382Z" fill="white"/>
<path d="M22.9994 22.1104C28.1443 22.1104 32.3176 26.2837 32.3176 31.4286C32.3176 36.5735 28.1443 40.7468 22.9994 40.7468C17.8545 40.7468 13.6812 36.5735 13.6812 31.4286C13.6812 26.2837 17.8545 22.1104 22.9994 22.1104Z" fill="#FFA500"/>
<path d="M22.9994 22.1104C17.8446 22.1104 13.6812 26.2738 13.6812 31.4286C13.6812 33.9068 14.6725 36.286 16.3577 37.8721C15.5646 36.4842 15.1681 34.8982 15.1681 33.2129C15.1681 28.0582 19.3316 23.8947 24.4863 23.8947C27.0637 23.8947 29.4429 24.9851 31.1281 26.6703C29.4429 23.9938 26.469 22.1104 22.9994 22.1104Z" fill="#FFA500"/>
<path d="M22.9999 17.1539C30.8311 17.1539 37.2746 23.4983 37.2746 31.4287C37.2746 39.3591 30.9303 45.7034 22.9999 45.7034C15.0694 45.7034 8.7251 39.26 8.7251 31.4287C8.7251 23.5974 15.1686 17.1539 22.9999 17.1539ZM32.3181 31.4287C32.3181 26.2739 28.1546 22.1104 22.9999 22.1104C17.8451 22.1104 13.6816 26.2739 13.6816 31.4287C13.6816 36.5835 17.8451 40.7469 22.9999 40.7469C28.1546 40.7469 32.3181 36.5835 32.3181 31.4287Z" fill="white"/>
<path d="M24.2906 42.1348C29.4453 42.1348 33.6088 37.9713 33.6088 32.8165C33.6088 30.14 32.5184 27.7609 30.734 26.0757C31.7253 27.5626 32.4192 29.4461 32.4192 31.3296C32.4192 36.4844 28.2558 40.6478 23.101 40.6478C20.6227 40.6478 18.3427 39.6565 16.6575 38.0704C18.2436 40.5487 21.1184 42.1348 24.2906 42.1348Z" fill="white"/>
<path d="M10.0151 32.9155C10.0151 25.0842 16.3594 18.6408 24.2898 18.6408C28.255 18.6408 31.9228 20.326 34.5002 22.9034C31.9228 19.4338 27.7594 17.1538 23.1003 17.1538C15.269 17.1538 8.8255 23.4981 8.8255 31.4286C8.8255 35.2946 10.4116 38.8633 12.8898 41.4407C11.0064 39.0616 10.0151 36.0877 10.0151 32.9155Z" fill="white"/>
<path d="M44.7094 11.0078V51.9486H1.29034V11.0078H44.7094ZM37.2746 31.4286C37.2746 23.5974 30.9303 17.1539 22.9999 17.1539C15.0694 17.1539 8.72511 23.5974 8.72511 31.4286C8.72511 39.2599 15.0694 45.7034 22.9999 45.7034C30.9303 45.7034 37.2746 39.2599 37.2746 31.4286Z" fill="#FFA500"/>
<path d="M2.57904 12.2968H19.9268H44.7094V11.0081H18.6381H1.29034V51.8497H2.57904V12.2968Z" fill="#FFA500"/>
<path d="M24.2884 46.9925C32.1197 46.9925 38.5632 40.6482 38.5632 32.7178C38.5632 28.5543 36.7788 24.8865 34.0032 22.21C36.0849 24.6882 37.3736 27.8604 37.3736 31.3299C37.3736 39.1612 31.0293 45.6047 23.0989 45.6047C19.3319 45.6047 15.9615 44.2169 13.3841 41.8377C15.9615 45.0099 19.8276 46.9925 24.2884 46.9925Z" fill="#FFA500"/>
<path d="M18.6381 11.0079H1.29034V1.09485H44.7094V11.0079H18.6381ZM39.9511 7.24092C40.645 7.14179 41.0416 6.54701 40.9424 5.8531C40.8433 5.15919 40.2485 4.76267 39.5546 4.8618C38.8607 4.96093 38.4642 5.55571 38.5633 6.24962C38.5633 6.8444 39.2572 7.34005 39.9511 7.24092ZM34.9946 7.24092C35.6885 7.14179 36.085 6.54701 35.9859 5.8531C35.8868 5.15919 35.292 4.76267 34.5981 4.8618C33.9042 4.96093 33.5077 5.55571 33.6068 6.24962C33.6068 6.8444 34.3007 7.34005 34.9946 7.24092ZM30.0381 7.24092C30.732 7.14179 31.1285 6.54701 31.0294 5.8531C30.9303 5.15919 30.3355 4.76267 29.6416 4.8618C28.9477 4.96093 28.5512 5.55571 28.6503 6.24962C28.6503 6.8444 29.3442 7.34005 30.0381 7.24092ZM14.9703 7.24092V4.76267H12.4921V7.24092H14.9703ZM11.2034 7.24092V4.76267H8.72511V7.24092H11.2034ZM7.53555 7.24092V4.76267H5.05729V7.24092H7.53555Z" fill="white"/>
<path d="M2.47991 2.28441H44.7094V1.09485H1.29034V11.0079H2.47991V2.28441Z" fill="white"/>
<path d="M40.9431 5.85286C41.0422 6.54677 40.5466 7.14155 39.9518 7.24068C39.2579 7.33981 38.6631 6.84416 38.564 6.24938C38.4648 5.55547 38.9605 4.96069 39.5553 4.86156C40.2492 4.6633 40.844 5.15895 40.9431 5.85286Z" fill="#23262F" fill-opacity="0.8"/>
<path d="M35.9861 5.85286C36.0852 6.54677 35.5895 7.14155 34.9948 7.24068C34.3008 7.33981 33.7061 6.84416 33.6069 6.24938C33.5078 5.55547 34.0035 4.96069 34.5982 4.86156C35.2921 4.6633 35.8869 5.15895 35.9861 5.85286Z" fill="#23262F" fill-opacity="0.8"/>
<path d="M31.03 5.85286C31.1291 6.54677 30.6335 7.14155 30.0387 7.24068C29.3448 7.33981 28.75 6.84416 28.6509 6.24938C28.5517 5.55547 29.0474 4.96069 29.6422 4.86156C30.3361 4.6633 30.9309 5.15895 31.03 5.85286Z" fill="#23262F" fill-opacity="0.8"/>
<path d="M14.9709 4.76282H12.4927V7.24107H14.9709V4.76282Z" fill="#23262F" fill-opacity="0.8"/>
<path d="M11.2034 4.76282H8.7251V7.24107H11.2034V4.76282Z" fill="#23262F" fill-opacity="0.8"/>
<path d="M7.53734 4.76282H5.05908V7.24107H7.53734V4.76282Z" fill="#23262F" fill-opacity="0.8"/>
<path d="M44.7093 52.5434C44.412 52.5434 44.1146 52.246 44.1146 51.9487V11.0079C44.1146 10.7105 44.412 10.4131 44.7093 10.4131C45.0067 10.4131 45.3041 10.6113 45.3041 11.0079V51.9487C45.3041 52.246 45.0067 52.5434 44.7093 52.5434Z" fill="#23262F" fill-opacity="0.8"/>
<path d="M1.2904 52.5434C0.993009 52.5434 0.695618 52.246 0.695618 51.9487V11.0079C0.695618 10.7105 0.993009 10.4131 1.2904 10.4131C1.58779 10.4131 1.88518 10.7105 1.88518 11.0079V51.9487C1.98431 52.246 1.68692 52.5434 1.2904 52.5434Z" fill="#23262F" fill-opacity="0.8"/>
<path d="M44.7094 57.5H1.2904C0.993009 57.5 0.695618 57.2026 0.695618 56.9052V51.9487C0.695618 51.6513 0.993009 51.3539 1.2904 51.3539H44.7094C45.0068 51.3539 45.3042 51.6513 45.3042 51.9487V56.9052C45.3042 57.2026 45.0068 57.5 44.7094 57.5ZM1.98431 56.2113H44.1147V52.4443H1.98431V56.2113Z" fill="#23262F" fill-opacity="0.8"/>
<path d="M44.7094 11.6026H1.2904C0.993009 11.6026 0.695618 11.3052 0.695618 11.0078V1.09478C0.695618 0.797391 0.993009 0.5 1.2904 0.5H44.7094C45.0068 0.5 45.3042 0.797391 45.3042 1.09478V11.0078C45.3042 11.3052 45.0068 11.6026 44.7094 11.6026ZM1.98431 10.413H44.1147V1.68956H1.98431V10.413Z" fill="#23262F" fill-opacity="0.8"/>
<path d="M22.9997 46.2981C14.7719 46.2981 8.13019 39.6564 8.13019 31.4286C8.13019 23.2008 14.7719 16.5591 22.9997 16.5591C31.2275 16.5591 37.8693 23.2008 37.8693 31.4286C37.8693 39.6564 31.2275 46.2981 22.9997 46.2981ZM22.9997 17.8478C15.4658 17.8478 9.31975 23.9938 9.31975 31.5277C9.31975 39.0616 15.4658 45.2077 22.9997 45.2077C30.5336 45.2077 36.6797 38.9625 36.6797 31.4286C36.6797 23.8947 30.5336 17.8478 22.9997 17.8478Z" fill="#23262F" fill-opacity="0.8"/>
<path d="M22.9993 41.3415C17.5471 41.3415 13.0862 36.8807 13.0862 31.4285C13.0862 25.9764 17.5471 21.5155 22.9993 21.5155C28.4514 21.5155 32.9123 25.9764 32.9123 31.4285C32.9123 36.8807 28.4514 41.3415 22.9993 41.3415ZM22.9993 22.8042C18.241 22.8042 14.2758 26.6703 14.2758 31.5277C14.2758 36.385 18.1419 40.2511 22.9993 40.2511C27.8566 40.2511 31.7227 36.385 31.7227 31.5277C31.7227 26.6703 27.7575 22.8042 22.9993 22.8042Z" fill="#23262F" fill-opacity="0.8"/>
<path d="M18.6371 11.6027C18.3397 11.6027 18.0423 11.3053 18.0423 11.008V4.76275C18.0423 4.46536 18.3397 4.16797 18.6371 4.16797C18.9345 4.16797 19.2319 4.46536 19.2319 4.76275V11.008C19.331 11.3053 19.0336 11.6027 18.6371 11.6027Z" fill="#23262F" fill-opacity="0.8"/>
<path d="M14.9712 35.1954C14.773 35.1954 14.5747 35.0962 14.4756 34.9971C14.2773 34.6997 14.2773 34.3032 14.5747 34.1049L20.8199 29.1484C21.1173 28.9502 21.5138 28.9502 21.7121 29.2476C21.9103 29.5449 21.9103 29.9415 21.613 30.1397L15.3677 35.0962C15.2686 35.0962 15.0704 35.1954 14.9712 35.1954Z" fill="#23262F" fill-opacity="0.8"/>
<path d="M21.1166 36.3853C20.9183 36.3853 20.8192 36.2862 20.6209 36.187C20.4226 35.8896 20.4226 35.4931 20.72 35.2949L30.6331 26.5714C30.9304 26.3731 31.327 26.3731 31.5252 26.6705C31.7235 26.9679 31.7235 27.3644 31.4261 27.5627L21.5131 36.2862C21.4139 36.2862 21.3148 36.3853 21.1166 36.3853Z" fill="#23262F" fill-opacity="0.8"/>
</svg>
