<svg width="34" height="58" viewBox="0 0 34 58" fill="none" xmlns="http://www.w3.org/2000/svg">
<path d="M32.6984 6.02771C32.6984 3.31663 30.468 1.18237 27.853 1.18237H6.14515C3.43407 1.18237 1.2998 3.41277 1.2998 6.02771V51.9719C1.2998 54.683 3.53021 56.8172 6.14515 56.8172H27.853C30.5641 56.8172 32.6984 54.5868 32.6984 51.9719V29.5814C32.7945 29.4853 32.7945 31.6195 32.6984 6.02771Z" fill="#FFA500"/>
<path d="M29.1124 7.38313C29.1124 5.93146 27.9492 4.76819 26.4975 4.76819H21.8444V4.96046C21.8444 5.83532 21.1618 6.50828 20.2966 6.50828H13.7016C12.8267 6.50828 12.1537 5.8257 12.1537 4.96046V4.76819H7.50069C6.04901 4.76819 4.88574 5.93146 4.88574 7.38313V50.7124C4.88574 52.164 6.04901 53.3273 7.50069 53.3273H26.5936C28.0453 53.3273 29.2086 52.164 29.2086 50.7124V7.38313H29.1124Z" fill="white"/>
<path d="M21.268 46.5402V49.6454H9.73145V46.5402H12.7406H21.268Z" fill="white"/>
<path d="M21.268 40.5316V43.5311H12.7406H9.73145V40.5316H12.7406H21.268Z" fill="white"/>
<path d="M21.268 34.4269V37.5225H12.7406H9.73145V34.4269H12.7406H21.268Z" fill="white"/>
<path d="M24.2671 43.5311V46.5402H21.2676H12.7402V43.5311H21.2676H24.2671Z" fill="#FFA500"/>
<path d="M24.2671 37.5225V40.5316H21.2676H12.7402V37.5225H21.2676H24.2671Z" fill="#FFA500"/>
<path d="M24.2671 31.4178V34.427H21.2676H12.7402V31.4178H24.2671Z" fill="#FFA500"/>
<path d="M27.854 57.4904H6.14608C3.13697 57.4904 0.618164 55.0677 0.618164 51.9625V6.02791C0.618164 3.01881 3.04083 0.5 6.14608 0.5H27.854C30.8631 0.5 33.3819 2.92267 33.3819 6.02791V9.61385C33.3819 9.90226 33.0935 10.2003 32.7954 10.2003C32.4974 10.2003 32.2186 9.91187 32.2186 9.61385V8.45058V6.02791C32.2186 3.70138 30.2766 1.7594 27.9501 1.7594H6.14608C3.81955 1.7594 1.87756 3.70138 1.87756 6.02791V51.9721C1.87756 54.2986 3.81955 56.2406 6.14608 56.2406H27.854C30.1805 56.2406 32.1225 54.2986 32.1225 51.9721V8.15896C32.1225 7.87055 32.4109 7.58214 32.6993 7.58214C32.9877 7.58214 33.2857 7.87055 33.2857 8.15896V51.9721C33.3819 54.9812 30.8631 57.5 27.854 57.5V57.4904Z" fill="#23262F" fill-opacity="0.8"/>
<path d="M26.2103 54.3273H7.1174C5.37731 54.3273 3.91602 52.8756 3.91602 51.1259V7.90243C3.91602 6.16234 5.3677 4.70105 7.1174 4.70105H11.7705C12.0589 4.70105 12.3473 4.98946 12.3473 5.28749V5.47976C12.3473 6.05659 12.828 6.45075 13.3183 6.45075H19.8076C20.3844 6.45075 20.7786 5.97007 20.7786 5.47976V5.28749C20.7786 4.99908 21.067 4.70105 21.365 4.70105H26.0181C27.7678 4.70105 29.2194 6.15273 29.2194 7.90243V10.1328C29.2194 10.4212 28.931 10.7193 28.633 10.7193C28.335 10.7193 28.0562 10.4309 28.0562 10.1328V7.90243C28.0562 6.83531 27.1813 5.96045 26.1142 5.96045H22.1437C21.9514 7.02758 21.0766 7.80629 20.0095 7.80629H13.4144C12.3473 7.80629 11.4724 7.02758 11.2802 5.96045H7.10779C6.04066 5.96045 5.16581 6.83531 5.16581 7.90243V51.2317C5.16581 52.2988 6.04066 53.1736 7.10779 53.1736H26.2007C27.2679 53.1736 28.1427 52.2988 28.1427 51.2317V10.0012C28.1427 9.71278 28.4311 9.42437 28.7195 9.42437C29.0079 9.42437 29.2963 9.71278 29.2963 10.0012V51.1355C29.3925 52.9814 27.9408 54.3369 26.1911 54.3369L26.2103 54.3273Z" fill="#23262F" fill-opacity="0.8"/>
<path d="M21.2696 50.2223H9.73308C9.44467 50.2223 9.15625 49.9339 9.15625 49.6455V46.6364C9.15625 46.348 9.44467 46.0499 9.73308 46.0499H12.7422C13.0306 46.0499 13.3286 46.3383 13.3286 46.6364C13.3286 46.9344 13.0402 47.2132 12.7422 47.2132H10.3195V49.059H20.5966V46.6364C20.5966 46.348 20.885 46.0499 21.1735 46.0499C21.4619 46.0499 21.7503 46.3383 21.7503 46.6364V49.6455C21.8464 49.9339 21.558 50.2223 21.2696 50.2223Z" fill="#23262F" fill-opacity="0.8"/>
<path d="M24.2667 47.2229H12.7301C12.4417 47.2229 12.1533 46.9344 12.1533 46.646V43.5408C12.1533 43.2524 12.4417 42.9543 12.7301 42.9543C13.0186 42.9543 13.3166 43.2428 13.3166 43.5408V45.9635H23.5937V44.1176H21.171C20.8826 44.1176 20.5942 43.8292 20.5942 43.5408C20.5942 43.2524 20.8826 42.9543 21.171 42.9543H24.1801C24.4685 42.9543 24.757 43.2428 24.757 43.5408V46.5499C24.8531 46.9344 24.5647 47.2325 24.2763 47.2325L24.2667 47.2229Z" fill="#23262F" fill-opacity="0.8"/>
<path d="M21.2696 44.1177H9.73308C9.44467 44.1177 9.15625 43.8293 9.15625 43.5409V40.5318C9.15625 40.2433 9.44467 39.9453 9.73308 39.9453H12.7422C13.0306 39.9453 13.3286 40.2337 13.3286 40.5318C13.3286 40.8298 13.0402 41.1086 12.7422 41.1086H10.3195V42.9544H20.5966V40.5318C20.5966 40.2433 20.885 39.9453 21.1735 39.9453C21.4619 39.9453 21.7503 40.2337 21.7503 40.5318V43.5409C21.8464 43.8293 21.558 44.1177 21.2696 44.1177Z" fill="#23262F" fill-opacity="0.8"/>
<path d="M24.2667 41.1087H12.7301C12.4417 41.1087 12.1533 40.8203 12.1533 40.5319V37.5227C12.1533 37.2343 12.4417 36.9459 12.7301 36.9459C13.0186 36.9459 13.3166 37.2343 13.3166 37.5227V39.9454H23.5937V38.0996H21.171C20.8826 38.0996 20.5942 37.8112 20.5942 37.5227C20.5942 37.2343 20.8826 36.9459 21.171 36.9459H24.1801C24.4685 36.9459 24.757 37.2343 24.757 37.5227V40.5319C24.8531 40.8203 24.5647 41.1087 24.2763 41.1087H24.2667Z" fill="#23262F" fill-opacity="0.8"/>
<path d="M21.2696 38.1092H9.73308C9.44467 38.1092 9.15625 37.8208 9.15625 37.5323V34.5232C9.15625 34.2348 9.44467 33.9464 9.73308 33.9464H12.7422C13.0306 33.9464 13.3286 34.2348 13.3286 34.5232C13.3286 34.8116 13.0402 35.1097 12.7422 35.1097H10.3195V36.9555H20.5966V34.5328C20.5966 34.2444 20.885 33.956 21.1735 33.956C21.4619 33.956 21.7503 34.2444 21.7503 34.5328V37.542C21.8464 37.8304 21.558 38.1188 21.2696 38.1188V38.1092Z" fill="#23262F" fill-opacity="0.8"/>
<path d="M24.2667 35.0996H12.7301C12.4417 35.0996 12.1533 34.8112 12.1533 34.5132V31.5041C12.1533 31.2157 12.4417 30.9272 12.7301 30.9272H24.2667C24.5551 30.9272 24.8435 31.2157 24.8435 31.5041V34.5132C24.8435 34.8016 24.5551 35.0996 24.2667 35.0996ZM13.3166 33.8402H23.5937V31.9944H13.3166V33.8402Z" fill="#23262F" fill-opacity="0.8"/>
<path d="M18.8451 16.2955H7.89503C7.60662 16.2955 7.30859 16.0071 7.30859 15.709C7.30859 15.411 7.59701 15.1322 7.89503 15.1322H18.8451C19.1335 15.1322 19.4219 15.4206 19.4219 15.709C19.4219 15.9974 19.1335 16.2955 18.8451 16.2955Z" fill="#23262F" fill-opacity="0.8"/>
<path d="M21.3793 19.3965H10.4292C10.1408 19.3965 9.84277 19.1081 9.84277 18.8101C9.84277 18.5121 10.1312 18.2333 10.4292 18.2333H21.3793C21.6677 18.2333 21.9561 18.5217 21.9561 18.8101C21.9561 19.0985 21.6677 19.3965 21.3793 19.3965Z" fill="#23262F" fill-opacity="0.8"/>
<path d="M21.3793 22.4977H10.4292C10.1408 22.4977 9.84277 22.2093 9.84277 21.9113C9.84277 21.6133 10.1312 21.3345 10.4292 21.3345H21.3793C21.6677 21.3345 21.9561 21.6229 21.9561 21.9113C21.9561 22.1997 21.6677 22.4977 21.3793 22.4977Z" fill="#23262F" fill-opacity="0.8"/>
<path d="M18.8451 13.8726H7.89503C7.60662 13.8726 7.30859 13.5842 7.30859 13.2958C7.30859 13.0074 7.59701 12.719 7.89503 12.719H18.8451C19.1335 12.719 19.4219 13.0074 19.4219 13.2958C19.4219 13.5842 19.1335 13.8726 18.8451 13.8726Z" fill="#23262F" fill-opacity="0.8"/>
<path d="M12.1538 11.4498H7.88527C7.59686 11.4498 7.29883 11.1614 7.29883 10.8729C7.29883 10.5845 7.58724 10.2865 7.88527 10.2865H12.1538C12.4422 10.2865 12.7306 10.5749 12.7306 10.8729C12.7306 11.171 12.4422 11.4498 12.1538 11.4498Z" fill="#23262F" fill-opacity="0.8"/>
</svg>
