<svg width="82" height="58" viewBox="0 0 82 58" fill="none" xmlns="http://www.w3.org/2000/svg">
<path d="M75.7124 1.36414H6.2866C3.72209 1.36414 1.71014 3.36187 1.71014 5.94055V52.0875C1.71014 54.6662 3.70792 56.664 6.2866 56.664H75.7124C78.2769 56.664 80.2888 54.6662 80.2888 52.0875V5.94055C80.2888 3.37604 78.2911 1.36414 75.7124 1.36414Z" fill="#FFA500"/>
<path d="M75.0057 45.9383H7.15253V6.64893H75.0057V45.9383Z" fill="white"/>
<path d="M42.2892 50.0759C42.5725 50.3592 42.8559 50.7842 42.8559 51.3652C42.8559 51.7902 42.7142 52.3712 42.2892 52.6545C41.8641 52.9379 41.439 53.0796 40.9998 53.0796C39.9938 53.0796 39.1437 52.2295 39.1437 51.2235C39.1437 50.7985 39.2854 50.2176 39.7105 49.9342C40.1355 49.6508 40.4189 49.3674 40.9998 49.3674C41.5807 49.3674 42.0058 49.6508 42.2892 50.0759Z" fill="#23262F" fill-opacity="0.8"/>
<path d="M75.713 57.5H54.4318C54.0067 57.5 53.5817 57.075 53.5817 56.6499C53.5817 56.2249 54.0067 55.7998 54.4318 55.7998H75.713C77.7107 55.7998 79.4251 54.0854 79.4251 52.0876V5.94067C79.4251 3.94291 77.7107 2.22852 75.713 2.22852H6.28711C4.28935 2.22852 2.57492 3.94291 2.57492 5.94067V52.0876C2.57492 54.0854 4.28935 55.7998 6.28711 55.7998H59.5682C59.9933 55.7998 60.4184 56.2249 60.4184 56.6499C60.4184 57.075 59.9933 57.5 59.5682 57.5H6.28711C3.28338 57.5 0.860535 55.0772 0.860535 52.0734V5.92657C0.860535 2.92284 3.28338 0.5 6.28711 0.5H75.713C78.7167 0.5 81.1395 2.92284 81.1395 5.92657V52.0734C81.1395 55.0772 78.7167 57.5 75.713 57.5Z" fill="#23262F" fill-opacity="0.8"/>
<path d="M75.0033 46.7888H7.15011C6.72505 46.7888 6.29999 46.3637 6.29999 45.9387V6.64927C6.29999 6.22422 6.72505 5.79919 7.15011 5.79919H75.0033C75.4283 5.79919 75.8533 6.22422 75.8533 6.64927V45.9387C75.8533 46.3637 75.4283 46.7888 75.0033 46.7888ZM8.00023 45.0744H74.139V7.49944H8.00023V45.0744Z" fill="#23262F" fill-opacity="0.8"/>
<path d="M75.0041 37.0689H64.2927C63.8676 37.0689 63.4426 36.6439 63.4426 36.2188C63.4426 35.7938 63.8676 35.3545 64.2927 35.3545H75.0041C75.4292 35.3545 75.8542 35.7796 75.8542 36.2188C75.8542 36.6581 75.4292 37.0689 75.0041 37.0689Z" fill="#23262F" fill-opacity="0.8"/>
<path d="M75.0041 32.5066H64.2927C63.8676 32.5066 63.4426 32.0816 63.4426 31.6565C63.4426 31.2314 63.8676 30.7922 64.2927 30.7922H75.0041C75.4292 30.7922 75.8542 31.2173 75.8542 31.6565C75.8542 32.0957 75.4292 32.5066 75.0041 32.5066Z" fill="#23262F" fill-opacity="0.8"/>
<path d="M75.0041 28.0718H64.2927C63.8676 28.0718 63.4426 27.6467 63.4426 27.2075C63.4426 26.7683 63.8676 26.3574 64.2927 26.3574H75.0041C75.4292 26.3574 75.8542 26.7824 75.8542 27.2075C75.8542 27.6326 75.4292 28.0718 75.0041 28.0718Z" fill="#23262F" fill-opacity="0.8"/>
<path d="M75.0041 23.6512H64.2927C63.8676 23.6512 63.4426 23.2262 63.4426 22.8011C63.4426 22.3761 63.8676 21.9369 64.2927 21.9369H75.0041C75.4292 21.9369 75.8542 22.3619 75.8542 22.8011C75.8542 23.2404 75.4292 23.6512 75.0041 23.6512Z" fill="#23262F" fill-opacity="0.8"/>
<path d="M75.0041 19.2166H64.2927C63.8676 19.2166 63.4426 18.7915 63.4426 18.3523C63.4426 17.9131 63.8676 17.5022 64.2927 17.5022H75.0041C75.4292 17.5022 75.8542 17.9272 75.8542 18.3523C75.8542 18.7773 75.4292 19.2166 75.0041 19.2166Z" fill="#23262F" fill-opacity="0.8"/>
<path d="M75.0041 14.6541H64.2927C63.8676 14.6541 63.4426 14.2291 63.4426 13.804C63.4426 13.379 63.8676 12.9397 64.2927 12.9397H75.0041C75.4292 12.9397 75.8542 13.3648 75.8542 13.804C75.8542 14.2433 75.4292 14.6541 75.0041 14.6541Z" fill="#23262F" fill-opacity="0.8"/>
<path d="M17.8615 37.0689H7.15011C6.72505 37.0689 6.29999 36.6439 6.29999 36.2188C6.29999 35.7938 6.72505 35.3545 7.15011 35.3545H17.8615C18.2866 35.3545 18.7116 35.7796 18.7116 36.2188C18.7116 36.6581 18.2866 37.0689 17.8615 37.0689Z" fill="#23262F" fill-opacity="0.8"/>
<path d="M17.8615 32.5066H7.15011C6.72505 32.5066 6.29999 32.0816 6.29999 31.6565C6.29999 31.2314 6.72505 30.7922 7.15011 30.7922H17.8615C18.2866 30.7922 18.7116 31.2173 18.7116 31.6565C18.7116 32.0957 18.2866 32.5066 17.8615 32.5066Z" fill="#23262F" fill-opacity="0.8"/>
<path d="M17.8615 28.0718H7.15011C6.72505 28.0718 6.29999 27.6467 6.29999 27.2075C6.29999 26.7683 6.72505 26.3574 7.15011 26.3574H17.8615C18.2866 26.3574 18.7116 26.7824 18.7116 27.2075C18.7116 27.6326 18.2866 28.0718 17.8615 28.0718Z" fill="#23262F" fill-opacity="0.8"/>
<path d="M17.8615 23.6512H7.15011C6.72505 23.6512 6.29999 23.2262 6.29999 22.8011C6.29999 22.3761 6.72505 21.9369 7.15011 21.9369H17.8615C18.2866 21.9369 18.7116 22.3619 18.7116 22.8011C18.7116 23.2404 18.2866 23.6512 17.8615 23.6512Z" fill="#23262F" fill-opacity="0.8"/>
<path d="M17.8615 19.2166H7.15011C6.72505 19.2166 6.29999 18.7915 6.29999 18.3523C6.29999 17.9131 6.72505 17.5022 7.15011 17.5022H17.8615C18.2866 17.5022 18.7116 17.9272 18.7116 18.3523C18.7116 18.7773 18.2866 19.2166 17.8615 19.2166Z" fill="#23262F" fill-opacity="0.8"/>
<path d="M17.8615 14.6541H7.15011C6.72505 14.6541 6.29999 14.2291 6.29999 13.804C6.29999 13.379 6.72505 12.9397 7.15011 12.9397H17.8615C18.2866 12.9397 18.7116 13.3648 18.7116 13.804C18.7116 14.2433 18.2866 14.6541 17.8615 14.6541Z" fill="#23262F" fill-opacity="0.8"/>
</svg>
