<svg width="48" height="48" viewBox="0 0 48 48" fill="none" xmlns="http://www.w3.org/2000/svg">
<path d="M20 35.6666C20 40.269 16.4183 44 12 44C7.58172 44 4 40.269 4 35.6666C4 32.787 7.13186 28.9435 9.47646 26.4697C10.8644 25.0052 13.1356 25.0052 14.5235 26.4697C16.8681 28.9435 20 32.787 20 35.6666Z" fill="#23262F" fill-opacity="0.8"/>
<path d="M44 35.6666C44 40.269 40.4183 44 36 44C31.5817 44 28 40.269 28 35.6666C28 32.787 31.1319 28.9435 33.4765 26.4697C34.8644 25.0052 37.1356 25.0052 38.5235 26.4697C40.8681 28.9435 44 32.787 44 35.6666Z" fill="#23262F" fill-opacity="0.8"/>
<path d="M32 15.6666C32 20.269 28.4183 24 24 24C19.5817 24 16 20.269 16 15.6666C16 12.787 19.1319 8.94354 21.4765 6.46971C22.8644 5.00522 25.1356 5.00522 26.5235 6.46971C28.8681 8.94354 32 12.787 32 15.6666Z" fill="#23262F" fill-opacity="0.8"/>
</svg>
