<svg width="48" height="48" viewBox="0 0 48 48" fill="none" xmlns="http://www.w3.org/2000/svg">
<path fill-rule="evenodd" clip-rule="evenodd" d="M20 4H18C12.3431 4 9.51472 4 7.75736 5.75736C6 7.51472 6 10.3431 6 16V42.5H4C3.17157 42.5 2.5 43.1716 2.5 44C2.5 44.8284 3.17157 45.5 4 45.5H34.5C35.3284 45.5 36 44.8284 36 44C36 43.1716 35.3284 42.5 34.5 42.5H32V35.5001H35.1429C35.8924 35.5001 36.5 36.1077 36.5 36.8572V37.0001C36.5 39.4853 38.5147 41.5001 41 41.5001C43.4853 41.5001 45.5 39.4853 45.5 37.0001V15.2035C45.5 14.8902 45.5 14.674 45.4882 14.4632C45.3769 12.4813 44.4844 10.6243 43.0063 9.29924C42.849 9.1583 42.6802 9.02327 42.4356 8.82756L39.937 6.82875C39.2901 6.31124 38.3462 6.41612 37.8287 7.06301C37.3112 7.70991 37.4161 8.65384 38.063 9.17136L40.5291 11.1443C40.8181 11.3755 40.9171 11.4554 41.0038 11.5331C41.8906 12.3281 42.4261 13.4423 42.4929 14.6315C42.4994 14.7477 42.5 14.8749 42.5 15.2449V16H41C39.3431 16 38 17.3431 38 19V23.8377C38 25.129 38.8263 26.2754 40.0513 26.6838L42.5 27.5V37.0001C42.5 37.8285 41.8284 38.5001 41 38.5001C40.1716 38.5001 39.5 37.8285 39.5 37.0001V36.8572C39.5 34.4508 37.5492 32.5001 35.1429 32.5001H32V16C32 10.3431 32 7.51472 30.2426 5.75736C28.4853 4 25.6569 4 20 4ZM19.7717 18.7138C20.4821 19.14 20.7125 20.0614 20.2862 20.7717L18.6493 23.5H22C22.5404 23.5 23.039 23.7907 23.3053 24.261C23.5716 24.7312 23.5643 25.3083 23.2862 25.7717L20.2862 30.7717C19.86 31.4821 18.9386 31.7125 18.2283 31.2862C17.5179 30.86 17.2875 29.9386 17.7138 29.2283L19.3507 26.5H16C15.4596 26.5 14.961 26.2093 14.6947 25.739C14.4284 25.2688 14.4357 24.6917 14.7138 24.2283L17.7138 19.2283C18.14 18.5179 19.0614 18.2875 19.7717 18.7138Z" fill="#23262F" fill-opacity="0.8"/>
<rect x="13.2" y="18" width="10.8" height="15.6" fill="#23262F" fill-opacity="0.8"/>
<path d="M18.75 18.372C19.786 18.372 20.6913 18.5773 21.466 18.988C22.2407 19.3986 22.838 19.9773 23.258 20.724C23.6873 21.4613 23.902 22.3153 23.902 23.286C23.902 24.2473 23.6873 25.1013 23.258 25.848C22.838 26.5946 22.236 27.1733 21.452 27.584C20.6773 27.9946 19.7767 28.2 18.75 28.2H15.068V18.372H18.75ZM18.596 26.128C19.5013 26.128 20.206 25.8806 20.71 25.386C21.214 24.8913 21.466 24.1913 21.466 23.286C21.466 22.3806 21.214 21.676 20.71 21.172C20.206 20.668 19.5013 20.416 18.596 20.416H17.462V26.128H18.596Z" fill="white" fill-opacity="0.9"/>
</svg>
