<svg width="48" height="48" viewBox="0 0 48 48" fill="none" xmlns="http://www.w3.org/2000/svg">
<path fill-rule="evenodd" clip-rule="evenodd" d="M17.5 4H19.5C25.1569 4 27.9853 4 29.7426 5.75736C31.5 7.51472 31.5 10.3431 31.5 16V32.5001H34.6429C37.0492 32.5001 39 34.4508 39 36.8572V37.0001C39 37.8285 39.6716 38.5001 40.5 38.5001C41.3284 38.5001 42 37.8285 42 37.0001V27.5L39.5513 26.6838C38.3263 26.2754 37.5 25.129 37.5 23.8377V19C37.5 17.3431 38.8431 16 40.5 16H42V15.2449C42 14.8749 41.9994 14.7477 41.9929 14.6315C41.9261 13.4423 41.3906 12.3281 40.5038 11.5331C40.4171 11.4554 40.3181 11.3755 40.0291 11.1443L37.563 9.17136C36.9161 8.65384 36.8112 7.70991 37.3287 7.06301C37.8462 6.41612 38.7901 6.31124 39.437 6.82875L41.9356 8.82756C42.1802 9.02327 42.349 9.1583 42.5063 9.29924C43.9844 10.6243 44.8769 12.4813 44.9882 14.4632C45 14.674 45 14.8902 45 15.2035V37.0001C45 39.4853 42.9853 41.5001 40.5 41.5001C38.0147 41.5001 36 39.4853 36 37.0001V36.8572C36 36.1077 35.3924 35.5001 34.6429 35.5001H31.5V42.5H33.7469C34.5753 42.5 35.2469 43.1716 35.2469 44C35.2469 44.8284 34.5753 45.5 33.7469 45.5H3.5C2.67157 45.5 2 44.8284 2 44C2 43.1716 2.67157 42.5 3.5 42.5H5.5V16C5.5 10.3431 5.5 7.51472 7.25736 5.75736C9.01472 4 11.8431 4 17.5 4ZM14 32.5C13.1716 32.5 12.5 33.1716 12.5 34C12.5 34.8284 13.1716 35.5 14 35.5H24C24.8284 35.5 25.5 34.8284 25.5 34C25.5 33.1716 24.8284 32.5 24 32.5H14ZM22 12H16C14.1144 12 13.1716 12 12.5858 12.5858C12 13.1716 12 14.1144 12 16C12 17.8856 12 18.8284 12.5858 19.4142C13.1716 20 14.1144 20 16 20H22C23.8856 20 24.8284 20 25.4142 19.4142C26 18.8284 26 17.8856 26 16C26 14.1144 26 13.1716 25.4142 12.5858C24.8284 12 23.8856 12 22 12Z" fill="#23262F" fill-opacity="0.8"/>
</svg>
