<svg width="48" height="48" viewBox="0 0 48 48" fill="none" xmlns="http://www.w3.org/2000/svg">
<path d="M32 12.8372C37.6569 12.8372 40.4853 12.8372 42.2426 14.472C44 16.1067 44 18.7378 44 24C44 29.2622 44 31.8933 42.2426 33.528C40.4853 35.1628 37.6569 35.1628 32 35.1628L16 35.1628C10.3431 35.1628 7.51472 35.1628 5.75736 33.528C4 31.8933 4 29.2622 4 24C4 18.7378 4 16.1067 5.75736 14.472C7.51472 12.8372 10.3431 12.8372 16 12.8372L32 12.8372Z" fill="#23262F" fill-opacity="0.8"/>
<path d="M32.1975 10.0465L32 10.0465L15.8025 10.0465C13.837 10.0464 12.0724 10.0463 10.5447 10.1389C10.0053 10.1716 9.49542 10.2159 9.01663 10.2757C8.80159 10.3026 8.58752 10.3332 8.37479 10.3682C7.9425 10.4394 7.53477 10.1051 7.5731 9.66871C7.6488 8.80683 7.81027 8.02841 8.20846 7.30145C8.83163 6.16373 9.82601 5.23873 11.0491 4.65903C11.8305 4.28863 12.6673 4.13842 13.5939 4.068C14.489 3.99997 15.5904 3.99998 16.9372 4L31.0628 4C32.4096 3.99998 33.511 3.99997 34.4061 4.068C35.3327 4.13842 36.1695 4.28863 36.9509 4.65903C38.174 5.23873 39.1684 6.16373 39.7915 7.30145C40.1897 8.02841 40.3512 8.80683 40.4269 9.66871C40.4652 10.1051 40.0575 10.4394 39.6252 10.3682C39.4125 10.3332 39.1984 10.3026 38.9834 10.2757C38.5046 10.2159 37.9947 10.1716 37.4553 10.1389C35.9276 10.0463 34.163 10.0464 32.1975 10.0465Z" fill="#23262F" fill-opacity="0.8"/>
<path d="M15.8025 37.9535L32.1975 37.9535C34.163 37.9536 35.9275 37.9537 37.4553 37.8611C37.9947 37.8284 38.5046 37.7841 38.9834 37.7243C39.1984 37.6974 39.4125 37.6668 39.6252 37.6318C40.0575 37.5606 40.4652 37.8949 40.4269 38.3313C40.3512 39.1932 40.1897 39.9716 39.7915 40.6985C39.1684 41.8363 38.174 42.7613 36.9509 43.341C36.1695 43.7114 35.3327 43.8616 34.4061 43.932C33.511 44 32.4096 44 31.0628 44L16.9372 44C15.5904 44 14.489 44 13.5939 43.932C12.6673 43.8616 11.8305 43.7114 11.0491 43.341C9.82601 42.7613 8.83163 41.8363 8.20846 40.6985C7.81027 39.9716 7.6488 39.1932 7.5731 38.3313C7.53477 37.8949 7.9425 37.5606 8.37479 37.6318C8.58752 37.6668 8.80159 37.6974 9.01663 37.7243C9.49542 37.7841 10.0053 37.8284 10.5447 37.8611C12.0725 37.9537 13.837 37.9536 15.8025 37.9535Z" fill="#23262F" fill-opacity="0.8"/>
</svg>
