<svg width="12" height="12" viewBox="0 0 12 12" fill="none" xmlns="http://www.w3.org/2000/svg">
<path d="M6 0C2.69151 0 0 2.6914 0 5.99907C0 9.30673 2.69151 12 6 12C9.30849 12 12 9.3086 12 6.00062C12 2.69265 9.30849 0 6 0ZM6 11.501C2.96469 11.501 0.495561 9.0328 0.495561 5.99907C0.495561 2.96533 2.96469 0.497487 6 0.497487C9.03531 0.497487 11.5044 2.96564 11.5044 5.99907C11.5044 9.03249 9.03531 11.501 6 11.501ZM9.95148 8.27973C9.91853 8.33653 9.86453 8.37793 9.80127 8.39488C9.73801 8.41184 9.67064 8.40297 9.61388 8.37021L8.99442 8.01233C8.93746 7.97935 8.89588 7.925 8.87883 7.86123C8.86178 7.79747 8.87066 7.72952 8.90352 7.67233C8.93638 7.61514 8.99052 7.5734 9.05404 7.55629C9.11755 7.53917 9.18524 7.54809 9.2422 7.58107L9.64206 7.81147C9.8838 7.32369 10.0251 6.79197 10.0574 6.24812H9.59839C9.53267 6.24812 9.46965 6.22191 9.42318 6.17527C9.37671 6.12862 9.35061 6.06535 9.35061 5.99938C9.35061 5.93341 9.37671 5.87014 9.42318 5.82349C9.46965 5.77684 9.53267 5.75063 9.59839 5.75063H10.0574C10.0246 5.2059 9.88169 4.67357 9.63741 4.18604L9.2388 4.41613C9.20118 4.43806 9.15841 4.44955 9.11491 4.4494C9.06025 4.44954 9.00707 4.43153 8.96367 4.39817C8.92026 4.36482 8.88906 4.31799 8.87492 4.26499C8.86078 4.21198 8.8645 4.15576 8.8855 4.1051C8.9065 4.05444 8.9436 4.01216 8.99102 3.98487L9.38747 3.75634C9.08528 3.30179 8.69566 2.91245 8.24148 2.61118L8.01322 3.00855C7.97893 3.06269 7.92513 3.10144 7.86306 3.11671C7.80099 3.13197 7.73544 3.12257 7.68011 3.09046C7.62478 3.05835 7.58395 3.00603 7.56614 2.94441C7.54833 2.88279 7.55493 2.81665 7.58456 2.75981L7.81344 2.36337C7.32511 2.11874 6.79256 1.97575 6.24778 1.943V2.40193C6.24778 2.4679 6.22167 2.53117 6.17521 2.57782C6.12874 2.62446 6.06572 2.65067 6 2.65067C5.93428 2.65067 5.87126 2.62446 5.82479 2.57782C5.77832 2.53117 5.75222 2.4679 5.75222 2.40193V1.943C5.20738 1.97551 4.67472 2.11829 4.18625 2.36275L4.41514 2.75981C4.43352 2.78811 4.44597 2.81987 4.45172 2.85315C4.45748 2.88644 4.45642 2.92056 4.4486 2.95342C4.44079 2.98628 4.42639 3.0172 4.40629 3.04429C4.38618 3.07139 4.36079 3.09408 4.33166 3.111C4.30253 3.12792 4.27027 3.1387 4.23685 3.14269C4.20343 3.14668 4.16955 3.14379 4.13728 3.1342C4.10501 3.12462 4.07502 3.10853 4.04915 3.08693C4.02327 3.06533 4.00206 3.03866 3.98678 3.00855L3.75728 2.61118C3.30318 2.91241 2.91357 3.30164 2.61129 3.75602L3.00774 3.98487C3.03595 4.0012 3.06068 4.02295 3.08051 4.04888C3.10034 4.0748 3.1149 4.1044 3.12334 4.13597C3.13178 4.16754 3.13394 4.20047 3.12971 4.23288C3.12547 4.2653 3.11492 4.29655 3.09865 4.32487C3.08238 4.35319 3.06071 4.37801 3.03489 4.39792C3.00906 4.41783 2.97958 4.43244 2.94813 4.44091C2.91668 4.44939 2.88388 4.45156 2.85159 4.44731C2.81931 4.44305 2.78817 4.43246 2.75996 4.41613L2.36104 4.18604C2.11734 4.67359 1.97497 5.20581 1.9426 5.75032H2.40285C2.46856 5.75032 2.53159 5.77653 2.57806 5.82318C2.62452 5.86983 2.65063 5.9331 2.65063 5.99907C2.65063 6.06504 2.62452 6.12831 2.57806 6.17495C2.53159 6.2216 2.46856 6.24781 2.40285 6.24781H1.9426C1.97589 6.79245 2.11843 7.32473 2.36166 7.81272L2.7612 7.58232C2.78941 7.56599 2.82054 7.55539 2.85283 7.55114C2.88512 7.54688 2.91792 7.54906 2.94937 7.55753C2.98082 7.566 3.0103 7.58061 3.03613 7.60053C3.06195 7.62044 3.08362 7.64526 3.09989 7.67358C3.11616 7.70189 3.12671 7.73315 3.13095 7.76556C3.13518 7.79797 3.13302 7.8309 3.12458 7.86248C3.11614 7.89405 3.10158 7.92364 3.08175 7.94957C3.06192 7.97549 3.03719 7.99724 3.00898 8.01358L2.38953 8.37146C2.3328 8.40411 2.2655 8.41293 2.20232 8.39598C2.13913 8.37903 2.08519 8.33769 2.05224 8.28098C1.6544 7.59173 1.44388 6.80966 1.44177 6.01306C1.44177 6.00871 1.44177 6.00466 1.44177 6.00031C1.44177 5.99596 1.44177 5.99285 1.44177 5.98912C1.44121 5.20094 1.64589 4.42631 2.03552 3.74203C2.039 3.73405 2.04293 3.72626 2.04728 3.71871C2.05222 3.71017 2.0577 3.70197 2.0637 3.69415C2.4603 3.02065 3.02131 2.45971 3.69378 2.06426C3.70121 2.05861 3.70897 2.05342 3.71701 2.04871C3.72505 2.04413 3.73332 2.03998 3.74179 2.03628C4.42616 1.64494 5.20001 1.4387 5.98761 1.43774H6.00991C6.79751 1.4387 7.57137 1.64494 8.25573 2.03628C8.2642 2.03998 8.27247 2.04413 8.28051 2.04871C8.28855 2.05342 8.29631 2.05861 8.30374 2.06426C8.97628 2.45961 9.53732 3.02057 9.93382 3.69415C9.93982 3.70197 9.94531 3.71017 9.95024 3.71871C9.95457 3.72649 9.9586 3.73426 9.96201 3.74203C10.3532 4.42546 10.5595 5.19967 10.5607 5.98787C10.5607 5.9916 10.5607 5.99534 10.5607 5.99938C10.5607 6.00342 10.5607 6.00746 10.5607 6.01182C10.5586 6.80818 10.3482 7.59001 9.95055 8.27911L9.95148 8.27973ZM6.96789 5.99845C6.96718 5.84959 6.9324 5.70289 6.86623 5.56968C6.80007 5.43646 6.70429 5.32029 6.58629 5.23015C6.4683 5.14 6.33124 5.07828 6.18571 5.04976C6.04018 5.02124 5.89006 5.02668 5.74695 5.06566L4.89335 3.5875C4.87786 3.55777 4.85654 3.5315 4.83067 3.51026C4.80481 3.48902 4.77493 3.47325 4.74283 3.46391C4.71074 3.45456 4.67709 3.45183 4.64392 3.45587C4.61074 3.45992 4.57873 3.47066 4.5498 3.48745C4.52086 3.50423 4.49561 3.52672 4.47556 3.55356C4.45552 3.5804 4.44108 3.61104 4.43313 3.64362C4.42518 3.6762 4.42388 3.71007 4.4293 3.74317C4.43473 3.77627 4.44676 3.80793 4.46469 3.83624L5.3186 5.31409C5.1832 5.4492 5.09086 5.62167 5.05332 5.80959C5.01577 5.9975 5.03472 6.19238 5.10774 6.36946C5.18077 6.54654 5.30459 6.69784 5.46346 6.80412C5.62233 6.9104 5.80909 6.96688 6 6.96637C6.08524 6.96629 6.17011 6.955 6.25243 6.93279L6.41596 7.21635C6.45025 7.2705 6.50404 7.30925 6.56612 7.32451C6.62819 7.33978 6.69374 7.33037 6.74907 7.29826C6.8044 7.26616 6.84523 7.21383 6.86304 7.15221C6.88084 7.0906 6.87424 7.02446 6.84462 6.96761L6.6814 6.68435C6.77184 6.59464 6.84372 6.48785 6.89289 6.37013C6.94206 6.25241 6.96755 6.12609 6.96789 5.99845ZM5.52984 5.99845C5.53013 5.91593 5.552 5.83494 5.59326 5.76357C5.63451 5.6922 5.6937 5.63295 5.76492 5.59175C5.85424 5.54044 5.95792 5.52013 6.05991 5.53398C6.16189 5.54783 6.25647 5.59506 6.329 5.66835C6.40153 5.74164 6.44795 5.8369 6.46108 5.93937C6.4742 6.04184 6.45329 6.14579 6.40159 6.23512C6.34989 6.32445 6.27028 6.39416 6.17511 6.43346C6.07993 6.47275 5.9745 6.47944 5.87516 6.45248C5.77581 6.42552 5.6881 6.36641 5.62561 6.28433C5.56312 6.20224 5.52935 6.10176 5.52953 5.99845H5.52984ZM7.43805 8.6258H4.56194C4.49623 8.6258 4.43321 8.652 4.38674 8.69865C4.34027 8.7453 4.31417 8.80857 4.31417 8.87454V10.312C4.31417 10.3779 4.34027 10.4412 4.38674 10.4879C4.43321 10.5345 4.49623 10.5607 4.56194 10.5607H7.43805C7.50377 10.5607 7.56679 10.5345 7.61326 10.4879C7.65973 10.4412 7.68583 10.3779 7.68583 10.312V8.87454C7.68583 8.80857 7.65973 8.7453 7.61326 8.69865C7.56679 8.652 7.50377 8.6258 7.43805 8.6258ZM7.19027 10.0632H4.80973V9.12328H7.19027V10.0632Z" fill="black"/>
</svg>
