<svg width="12" height="12" viewBox="0 0 12 12" fill="none" xmlns="http://www.w3.org/2000/svg">
<g clip-path="url(#clip0_1_2575)">
<g opacity="0.8">
<path d="M1.99999 1.5C1.72399 1.5 1.5 1.72399 1.5 1.99999C1.5 2.27599 1.72399 2.49998 1.99999 2.49998C2.27599 2.49998 2.49998 2.27599 2.49998 1.99999C2.49998 1.72399 2.27599 1.5 1.99999 1.5Z" fill="black"/>
<path d="M1.99999 3.5C1.72399 3.5 1.5 3.72399 1.5 3.99999C1.5 4.27599 1.72399 4.49998 1.99999 4.49998C2.27599 4.49998 2.49998 4.27599 2.49998 3.99999C2.49998 3.72399 2.27599 3.5 1.99999 3.5Z" fill="black"/>
<path d="M11.5 2.5H11.1989L10.9092 1.78232C10.6508 1.14227 9.92244 0.832473 9.28236 1.09085C8.64229 1.3492 8.33249 2.07808 8.59087 2.71815L9.00001 3.73117V5C9.00001 5.27614 9.22386 5.49999 9.5 5.49999H9.99994V9.49998C9.99994 9.77633 9.77631 9.99997 9.49996 9.99997C9.22361 9.99997 8.99996 9.77633 8.99996 9.49996V6.49997C8.99996 5.67134 8.3286 4.99997 7.49997 4.99997C7.32459 4.99997 7.15638 5.03035 6.99998 5.08561V1.49999C6.99998 0.671365 6.32862 0 5.49999 0H1.49999C0.671365 0 0 0.671365 0 1.49999V5.49999V10.5C0 11.3286 0.671365 12 1.49999 12H5.49999C6.32862 12 6.99998 11.3286 6.99998 10.5V6.49997C6.99998 6.22362 7.22362 5.99998 7.49997 5.99998C7.77632 5.99998 7.99996 6.22362 7.99996 6.49997V9.49996C7.99996 10.3286 8.67133 11 9.49996 11C10.3286 11 10.9999 10.3286 10.9999 9.49996V5.49999H11.5C11.7761 5.49999 12 5.27614 12 5V3.00001C12 2.72385 11.7761 2.5 11.5 2.5ZM1 1.49999C1 1.22364 1.22364 1 1.49999 1H5.49999C5.77634 1 5.99998 1.22364 5.99998 1.49999V4.99997H1V1.49999ZM5.99998 10.5C5.99998 10.7763 5.77634 11 5.49999 11H1.49999C1.22364 11 1 10.7763 1 10.5V5.99998H5.99998V10.5ZM11 4.49998H9.99999V3.63399C9.99999 3.56982 9.98764 3.50624 9.96359 3.44675L9.5181 2.34376C9.46651 2.21598 9.52864 2.06983 9.65663 2.01817C9.78442 1.96659 9.93013 2.02858 9.98183 2.15666L10.3978 3.18718C10.4742 3.37623 10.6576 3.5 10.8615 3.5H11L11 4.49998Z" fill="black"/>
<path d="M4.99999 1.5H3.99999C3.72385 1.5 3.5 1.72385 3.5 1.99999C3.5 2.27613 3.72385 2.49998 3.99999 2.49998H4.99999C5.27613 2.49998 5.49998 2.27613 5.49998 1.99999C5.50001 1.72385 5.27613 1.5 4.99999 1.5Z" fill="black"/>
<path d="M4.99999 3.5H3.99999C3.72385 3.5 3.5 3.72385 3.5 3.99999C3.5 4.27613 3.72385 4.49998 3.99999 4.49998H4.99999C5.27613 4.49998 5.49998 4.27613 5.49998 3.99999C5.50001 3.72387 5.27613 3.5 4.99999 3.5Z" fill="black"/>
<path d="M2.99999 7.99998H3.99999C4.27613 7.99998 4.49998 7.77613 4.49998 7.49999C4.49998 7.22385 4.27613 7 3.99999 7H2.99999C2.72385 7 2.5 7.22385 2.5 7.49999C2.5 7.77613 2.72385 7.99998 2.99999 7.99998Z" fill="black"/>
<path d="M4.49997 9H2.49999C2.22385 9 2 9.22385 2 9.49999C2 9.77613 2.22385 9.99998 2.49999 9.99998H4.49997C4.77611 9.99998 4.99996 9.77613 4.99996 9.49999C4.99996 9.22385 4.77611 9 4.49997 9Z" fill="black"/>
</g>
</g>
<defs>
<clipPath id="clip0_1_2575">
<rect width="12" height="12" fill="white"/>
</clipPath>
</defs>
</svg>
