<svg width="25" height="24" viewBox="0 0 25 24" fill="none" xmlns="http://www.w3.org/2000/svg">
<path d="M17.9142 10.4142C18.5 9.82843 18.5 8.88562 18.5 7C18.5 5.11438 18.5 4.17157 17.9142 3.58579M17.9142 10.4142C17.3284 11 16.3856 11 14.5 11H10.5C8.61438 11 7.67157 11 7.08579 10.4142M17.9142 10.4142C17.9142 10.4142 17.9142 10.4142 17.9142 10.4142ZM17.9142 3.58579C17.3284 3 16.3856 3 14.5 3L10.5 3C8.61438 3 7.67157 3 7.08579 3.58579M17.9142 3.58579C17.9142 3.58579 17.9142 3.58579 17.9142 3.58579ZM7.08579 3.58579C6.5 4.17157 6.5 5.11438 6.5 7C6.5 8.88562 6.5 9.82843 7.08579 10.4142M7.08579 3.58579C7.08579 3.58579 7.08579 3.58579 7.08579 3.58579ZM7.08579 10.4142C7.08579 10.4142 7.08579 10.4142 7.08579 10.4142Z" stroke="#C725E0" stroke-width="1.5"/>
<path d="M13.5 7C13.5 7.55228 13.0523 8 12.5 8C11.9477 8 11.5 7.55228 11.5 7C11.5 6.44772 11.9477 6 12.5 6C13.0523 6 13.5 6.44772 13.5 7Z" stroke="#C725E0" stroke-width="1.5"/>
<path d="M18.5 6C16.8431 6 15.5 4.65685 15.5 3" stroke="#C725E0" stroke-width="1.5" stroke-linecap="round"/>
<path d="M18.5 8C16.8431 8 15.5 9.34315 15.5 11" stroke="#C725E0" stroke-width="1.5" stroke-linecap="round"/>
<path d="M6.5 6C8.15685 6 9.5 4.65685 9.5 3" stroke="#C725E0" stroke-width="1.5" stroke-linecap="round"/>
<path d="M6.5 8C8.15685 8 9.5 9.34315 9.5 11" stroke="#C725E0" stroke-width="1.5" stroke-linecap="round"/>
<path d="M5.5 20.3884H7.75993C8.77079 20.3884 9.79253 20.4937 10.7763 20.6964C12.5166 21.0549 14.3488 21.0983 16.1069 20.8138C16.9738 20.6734 17.826 20.4589 18.5975 20.0865C19.2939 19.7504 20.1469 19.2766 20.7199 18.7459C21.2921 18.216 21.888 17.3487 22.3109 16.6707C22.6736 16.0894 22.4982 15.3762 21.9245 14.943C21.2873 14.4619 20.3417 14.462 19.7046 14.9433L17.8974 16.3084C17.197 16.8375 16.432 17.3245 15.5206 17.4699C15.411 17.4874 15.2962 17.5033 15.1764 17.5172M15.1764 17.5172C15.1403 17.5214 15.1038 17.5254 15.0668 17.5292M15.1764 17.5172C15.3222 17.486 15.4669 17.396 15.6028 17.2775C16.246 16.7161 16.2866 15.77 15.7285 15.1431C15.5991 14.9977 15.4475 14.8764 15.2791 14.7759C12.4817 13.1074 8.12942 14.3782 5.5 16.2429M15.1764 17.5172C15.1399 17.525 15.1033 17.5292 15.0668 17.5292M15.0668 17.5292C14.5434 17.5829 13.9312 17.5968 13.2518 17.5326" stroke="#C725E0" stroke-width="1.5" stroke-linecap="round"/>
<rect x="2.5" y="14" width="3" height="8" rx="1.5" stroke="#C725E0" stroke-width="1.5"/>
</svg>
