<svg width="24" height="24" viewBox="0 0 24 24" fill="none" xmlns="http://www.w3.org/2000/svg">
<path d="M8.96173 18.9108L9.58082 18.1255L8.96173 18.9108ZM12 5.50057L11.2795 6.19404C11.468 6.3899 11.7282 6.50057 12 6.50057C12.2718 6.50057 12.532 6.3899 12.7205 6.19404L12 5.50057ZM15.0383 18.9108L15.6574 19.6961L15.0383 18.9108ZM9.58082 18.1255C8.05033 16.919 6.42071 15.7725 5.12521 14.3137C3.864 12.8935 3 11.2564 3 9.13704H1C1 11.8806 2.14571 13.9706 3.62979 15.6417C5.07958 17.2743 6.93083 18.5832 8.34265 19.6961L9.58082 18.1255ZM3 9.13704C3 7.0797 4.16214 5.36739 5.72829 4.6515C7.2314 3.96443 9.28552 4.12236 11.2795 6.19404L12.7205 4.8071C10.2146 2.20362 7.26876 1.74831 4.89683 2.83253C2.58794 3.88793 1 6.33144 1 9.13704H3ZM8.34265 19.6961C8.85258 20.0981 9.41592 20.5398 9.99069 20.8757C10.5651 21.2114 11.2461 21.4999 12 21.4999V19.4999C11.7539 19.4999 11.4349 19.4032 10.9997 19.1489C10.565 18.8948 10.1091 18.542 9.58082 18.1255L8.34265 19.6961ZM15.6574 19.6961C17.0692 18.5832 18.9204 17.2743 20.3702 15.6417C21.8543 13.9706 23 11.8806 23 9.13704H21C21 11.2564 20.136 12.8935 18.8748 14.3137C17.5793 15.7725 15.9497 16.919 14.4192 18.1255L15.6574 19.6961ZM23 9.13704C23 6.33144 21.4121 3.88793 19.1032 2.83253C16.7312 1.74831 13.7854 2.20362 11.2795 4.8071L12.7205 6.19404C14.7145 4.12236 16.7686 3.96443 18.2717 4.6515C19.8379 5.36739 21 7.0797 21 9.13704H23ZM14.4192 18.1255C13.8909 18.542 13.435 18.8948 13.0003 19.1489C12.5651 19.4032 12.2461 19.4999 12 19.4999V21.4999C12.7539 21.4999 13.4349 21.2114 14.0093 20.8757C14.5841 20.5398 15.1474 20.0981 15.6574 19.6961L14.4192 18.1255Z" fill="#C82222"/>
</svg>
