<svg width="18" height="18" viewBox="0 0 18 18" fill="none" xmlns="http://www.w3.org/2000/svg">
<path d="M1.5 9C1.5 6.17157 1.5 4.75736 2.37868 3.87868C3.25736 3 4.67157 3 7.5 3H10.5C13.3284 3 14.7426 3 15.6213 3.87868C16.5 4.75736 16.5 6.17157 16.5 9C16.5 11.8284 16.5 13.2426 15.6213 14.1213C14.7426 15 13.3284 15 10.5 15H7.5C4.67157 15 3.25736 15 2.37868 14.1213C1.5 13.2426 1.5 11.8284 1.5 9Z" stroke="#FFA500" stroke-width="1.5"/>
<path d="M4.5 6L6.11917 7.34931C7.49665 8.49721 8.18539 9.07116 9 9.07116C9.81461 9.07116 10.5034 8.49721 11.8808 7.34931L13.5 6" stroke="#FFA500" stroke-width="1.5" stroke-linecap="round"/>
</svg>
