<svg width="21" height="22" viewBox="0 0 21 22" fill="none" xmlns="http://www.w3.org/2000/svg">
<g clip-path="url(#clip0_10_4838)">
<path d="M10.5 22.375C16.8836 22.375 22.0585 17.2822 22.0585 11C22.0585 4.71776 16.8836 -0.375 10.5 -0.375C4.11643 -0.375 -1.05847 4.71776 -1.05847 11C-1.05847 17.2822 4.11643 22.375 10.5 22.375Z" fill="#FCFCFD"/>
<path fill-rule="evenodd" clip-rule="evenodd" d="M9.72714 0.37811C10.1615 0.218158 10.6362 0.197306 11.0833 0.318527L11.2727 0.37811L18.9783 3.22186C19.369 3.36604 19.7101 3.61652 19.9617 3.94412C20.2133 4.27172 20.3651 4.66294 20.3995 5.07219L20.4072 5.25094V11.0609C20.4071 12.8163 19.9255 14.5392 19.0131 16.0477C18.1007 17.5561 16.7914 18.7941 15.2235 19.6311L14.9307 19.7817L11.2386 21.5984C11.0353 21.6983 10.8132 21.7559 10.5863 21.7674C10.3594 21.779 10.1325 21.7443 9.91978 21.6656L9.76127 21.5984L6.06916 19.7817C4.47367 18.9966 3.12316 17.8021 2.1602 16.3244C1.19725 14.8466 0.657578 13.1404 0.598156 11.3859L0.592651 11.0609V5.25094C0.592658 4.8405 0.711127 4.4385 0.934269 4.09175C1.15741 3.74499 1.47604 3.46774 1.85307 3.29228L2.0215 3.22186L9.72714 0.37811ZM14.279 7.34828L9.21747 12.3294L7.27124 10.4141C7.06469 10.211 6.7846 10.0969 6.49259 10.097C6.20057 10.0971 5.92056 10.2114 5.71415 10.4147C5.50774 10.6179 5.39184 10.8936 5.39194 11.181C5.39205 11.4683 5.50815 11.7439 5.7147 11.947L8.36104 14.5514C8.47349 14.6621 8.607 14.7499 8.75395 14.8098C8.9009 14.8697 9.05841 14.9006 9.21747 14.9006C9.37653 14.9006 9.53404 14.8697 9.68099 14.8098C9.82794 14.7499 9.96145 14.6621 10.0739 14.5514L15.8355 8.88011C15.9407 8.78018 16.0245 8.66064 16.0822 8.52847C16.1399 8.39629 16.1703 8.25414 16.1715 8.1103C16.1728 7.96645 16.145 7.8238 16.0896 7.69066C16.0343 7.55752 15.9525 7.43657 15.8492 7.33485C15.7458 7.23313 15.6229 7.15269 15.4876 7.09822C15.3523 7.04375 15.2074 7.01634 15.0612 7.01759C14.915 7.01884 14.7706 7.04872 14.6363 7.1055C14.502 7.16228 14.3805 7.24481 14.279 7.34828Z" fill="#FFA500"/>
</g>
<defs>
<clipPath id="clip0_10_4838">
<rect width="21" height="22" fill="white"/>
</clipPath>
</defs>
</svg>
