<svg width="24" height="24" viewBox="0 0 24 24" fill="none" xmlns="http://www.w3.org/2000/svg">
<path fill-rule="evenodd" clip-rule="evenodd" d="M0 12C0 5.37258 5.37258 0 12 0C18.6274 0 24 5.37258 24 12C24 18.6274 18.6274 24 12 24C5.37258 24 0 18.6274 0 12ZM9.80401 11.6571V12.96H11.9663C11.8792 13.5191 11.3127 14.5994 9.80401 14.5994C8.50226 14.5994 7.44016 13.5246 7.44016 12.2C7.44016 10.8754 8.50226 9.80057 9.80401 9.80057C10.5448 9.80057 11.0404 10.1154 11.3236 10.3869L12.3585 9.39343C11.694 8.77457 10.8334 8.4 9.80401 8.4C7.69615 8.4 5.99134 10.0991 5.99134 12.2C5.99134 14.3009 7.69615 16 9.80401 16C12.0045 16 13.4642 14.4583 13.4642 12.2869C13.4642 12.0371 13.4369 11.8471 13.4043 11.6571H9.80401ZM16.8847 11.6571H17.974V12.7429H16.8847V13.8286H15.7954V12.7429H14.706V11.6571H15.7954V10.5714H16.8847V11.6571Z" fill="#003366"/>
</svg>
