<svg width="27" height="33" viewBox="0 0 27 33" fill="none" xmlns="http://www.w3.org/2000/svg">
<path fill-rule="evenodd" clip-rule="evenodd" d="M21.625 0.25C22.9179 0.25 24.1579 0.763615 25.0721 1.67785C25.9864 2.59209 26.5 3.83207 26.5 5.125V8.375C26.5 9.66793 25.9864 10.9079 25.0721 11.8221C24.1579 12.7364 22.9179 13.25 21.625 13.25C20.3321 13.25 19.0921 12.7364 18.1779 11.8221C17.2636 10.9079 16.75 9.66793 16.75 8.375H15.125V24.625H16.75C16.75 23.3321 17.2636 22.0921 18.1779 21.1779C19.0921 20.2636 20.3321 19.75 21.625 19.75C22.9179 19.75 24.1579 20.2636 25.0721 21.1779C25.9864 22.0921 26.5 23.3321 26.5 24.625V27.875C26.5 29.1679 25.9864 30.4079 25.0721 31.3221C24.1579 32.2364 22.9179 32.75 21.625 32.75C20.3321 32.75 19.0921 32.2364 18.1779 31.3221C17.2636 30.4079 16.75 29.1679 16.75 27.875H10.25C10.25 28.5152 10.1239 29.1491 9.87891 29.7406C9.63392 30.332 9.27483 30.8695 8.82215 31.3221C8.36946 31.7748 7.83204 32.1339 7.24058 32.3789C6.64912 32.6239 6.01519 32.75 5.375 32.75C4.73481 32.75 4.10088 32.6239 3.50942 32.3789C2.91796 32.1339 2.38054 31.7748 1.92785 31.3221C1.47517 30.8695 1.11608 30.332 0.871088 29.7406C0.626096 29.1491 0.5 28.5152 0.5 27.875V24.625C0.5 23.9848 0.626096 23.3509 0.871088 22.7594C1.11608 22.168 1.47517 21.6305 1.92785 21.1779C2.38054 20.7252 2.91796 20.3661 3.50942 20.1211C4.10088 19.8761 4.73481 19.75 5.375 19.75C6.01519 19.75 6.64912 19.8761 7.24058 20.1211C7.83204 20.3661 8.36946 20.7252 8.82215 21.1779C9.27483 21.6305 9.63392 22.168 9.87891 22.7594C10.1239 23.3509 10.25 23.9848 10.25 24.625H11.875V8.375H10.25C10.25 9.66793 9.73639 10.9079 8.82215 11.8221C7.90791 12.7364 6.66793 13.25 5.375 13.25C4.08207 13.25 2.84209 12.7364 1.92785 11.8221C1.01361 10.9079 0.5 9.66793 0.5 8.375V5.125C0.5 3.83207 1.01361 2.59209 1.92785 1.67785C2.84209 0.763615 4.08207 0.25 5.375 0.25C6.66793 0.25 7.90791 0.763615 8.82215 1.67785C9.73639 2.59209 10.25 3.83207 10.25 5.125H16.75C16.75 3.83207 17.2636 2.59209 18.1779 1.67785C19.0921 0.763615 20.3321 0.25 21.625 0.25ZM21.625 23C21.227 23.0001 20.8428 23.1462 20.5454 23.4107C20.248 23.6751 20.0579 24.0396 20.0114 24.4349L20 24.625V27.875C20.0005 28.2892 20.1591 28.6876 20.4434 28.9887C20.7277 29.2899 21.1163 29.4711 21.5298 29.4954C21.9432 29.5197 22.3504 29.3852 22.668 29.1193C22.9856 28.8535 23.1897 28.4764 23.2386 28.0651L23.25 27.875V24.625C23.25 24.194 23.0788 23.7807 22.774 23.476C22.4693 23.1712 22.056 23 21.625 23ZM5.375 23C4.97698 23.0001 4.59283 23.1462 4.2954 23.4107C3.99796 23.6751 3.80794 24.0396 3.76137 24.4349L3.75 24.625V27.875C3.75046 28.2892 3.90905 28.6876 4.19338 28.9887C4.4777 29.2899 4.8663 29.4711 5.27977 29.4954C5.69323 29.5197 6.10037 29.3852 6.41798 29.1193C6.73559 28.8535 6.93971 28.4764 6.98863 28.0651L7 27.875V24.625C7 24.194 6.82879 23.7807 6.52405 23.476C6.2193 23.1712 5.80598 23 5.375 23ZM5.375 3.5C4.94402 3.5 4.5307 3.67121 4.22595 3.97595C3.92121 4.2807 3.75 4.69402 3.75 5.125V8.375C3.75 8.80598 3.92121 9.2193 4.22595 9.52405C4.5307 9.82879 4.94402 10 5.375 10C5.80598 10 6.2193 9.82879 6.52405 9.52405C6.82879 9.2193 7 8.80598 7 8.375V5.125C7 4.69402 6.82879 4.2807 6.52405 3.97595C6.2193 3.67121 5.80598 3.5 5.375 3.5ZM21.625 3.5C21.194 3.5 20.7807 3.67121 20.476 3.97595C20.1712 4.2807 20 4.69402 20 5.125V8.375C20 8.80598 20.1712 9.2193 20.476 9.52405C20.7807 9.82879 21.194 10 21.625 10C22.056 10 22.4693 9.82879 22.774 9.52405C23.0788 9.2193 23.25 8.80598 23.25 8.375V5.125C23.25 4.69402 23.0788 4.2807 22.774 3.97595C22.4693 3.67121 22.056 3.5 21.625 3.5Z" fill="#FFA500"/>
</svg>
