<svg width="28" height="28" viewBox="0 0 28 28" fill="none" xmlns="http://www.w3.org/2000/svg">
<path d="M1 21.6943L6.35278 26.0174C7.13995 26.6525 8.13191 27.0001 9.1562 27H23.2675C24.275 27 25.0919 26.2084 25.0919 25.2321C25.0919 23.2796 23.458 21.6943 21.4409 21.6943H11.6311M17.9344 1.00212C17.644 1.00212 17.3654 1.11392 17.1601 1.31292C16.9547 1.51192 16.8393 1.78183 16.8393 2.06326V5.0493H13.7599C13.4695 5.0493 13.191 5.1611 12.9856 5.3601C12.7802 5.5591 12.6649 5.82901 12.6649 6.11044V9.55914C12.6649 9.84057 12.7802 10.1105 12.9856 10.3095C13.191 10.5085 13.4695 10.6203 13.7599 10.6203H16.8393V13.6042C16.8393 13.8856 16.9547 14.1555 17.1601 14.3545C17.3654 14.5535 17.644 14.6653 17.9344 14.6653H21.4934C21.7839 14.6653 22.0624 14.5535 22.2678 14.3545C22.4732 14.1555 22.5885 13.8856 22.5885 13.6042V10.6203H25.6679C25.9583 10.6203 26.2369 10.5085 26.4423 10.3095C26.6476 10.1105 26.763 9.84057 26.763 9.55914V6.11044C26.763 5.82901 26.6476 5.5591 26.4423 5.3601C26.2369 5.1611 25.9583 5.0493 25.6679 5.0493H22.5885V2.06114C22.5885 1.77971 22.4732 1.5098 22.2678 1.3108C22.0624 1.1118 21.7839 1 21.4934 1L17.9344 1.00212Z" stroke="#FFA500" stroke-linecap="round" stroke-linejoin="round"/>
<path d="M7.57052 19.5718L9.21315 21.1635C9.42886 21.3725 9.68495 21.5383 9.96679 21.6515C10.2486 21.7646 10.5507 21.8228 10.8558 21.8228C11.1608 21.8228 11.4629 21.7646 11.7448 21.6515C12.0266 21.5383 12.2827 21.3725 12.4984 21.1635C12.7141 20.9545 12.8852 20.7063 13.002 20.4332C13.1187 20.1601 13.1788 19.8674 13.1788 19.5718C13.1788 19.2762 13.1187 18.9835 13.002 18.7104C12.8852 18.4373 12.7141 18.1891 12.4984 17.9801L9.94905 15.5098C9.12776 14.7137 8.01379 14.2664 6.85214 14.2661H1" stroke="#FFA500" stroke-linecap="round" stroke-linejoin="round"/>
</svg>
