<svg width="32" height="27" viewBox="0 0 32 27" fill="none" xmlns="http://www.w3.org/2000/svg">
<path d="M11.25 17.9751L20.75 9.9751" stroke="#FFA500" stroke-width="2" stroke-linecap="round" stroke-linejoin="round"/>
<path d="M12.0417 11.3084C12.4789 11.3084 12.8333 11.01 12.8333 10.6418C12.8333 10.2736 12.4789 9.9751 12.0417 9.9751C11.6044 9.9751 11.25 10.2736 11.25 10.6418C11.25 11.01 11.6044 11.3084 12.0417 11.3084Z" fill="#FFA500" stroke="#FFA500" stroke-width="2" stroke-linecap="round" stroke-linejoin="round"/>
<path d="M19.9583 17.9749C20.3955 17.9749 20.75 17.6765 20.75 17.3083C20.75 16.9401 20.3955 16.6416 19.9583 16.6416C19.5211 16.6416 19.1666 16.9401 19.1666 17.3083C19.1666 17.6765 19.5211 17.9749 19.9583 17.9749Z" fill="#FFA500" stroke="#FFA500" stroke-width="2" stroke-linecap="round" stroke-linejoin="round"/>
<path d="M1.75 13.9751C1.75 15.551 2.11859 17.1114 2.83472 18.5673C3.55085 20.0232 4.60049 21.3461 5.92373 22.4604C7.24696 23.5747 8.81787 24.4586 10.5468 25.0617C12.2757 25.6647 14.1287 25.9751 16 25.9751C17.8713 25.9751 19.7243 25.6647 21.4532 25.0617C23.1821 24.4586 24.753 23.5747 26.0763 22.4604C27.3995 21.3461 28.4492 20.0232 29.1653 18.5673C29.8814 17.1114 30.25 15.551 30.25 13.9751C30.25 12.3992 29.8814 10.8388 29.1653 9.3829C28.4492 7.92699 27.3995 6.60412 26.0763 5.48982C24.753 4.37551 23.1821 3.4916 21.4532 2.88854C19.7243 2.28549 17.8713 1.9751 16 1.9751C14.1287 1.9751 12.2757 2.28549 10.5468 2.88854C8.81787 3.4916 7.24696 4.37551 5.92373 5.48982C4.60049 6.60412 3.55085 7.92699 2.83472 9.3829C2.11859 10.8388 1.75 12.3992 1.75 13.9751Z" stroke="#FFA500" stroke-width="2" stroke-linecap="round" stroke-linejoin="round"/>
</svg>
