<svg width="28" height="26" viewBox="0 0 28 26" fill="none" xmlns="http://www.w3.org/2000/svg">
<g clip-path="url(#clip0_10_4844)">
<path d="M26.0837 0H-2.07875C-2.32308 0 -2.5574 0.0841186 -2.73017 0.233851C-2.90294 0.383583 -3 0.586663 -3 0.798416L-3 4.14591H12C13.8484 4.14706 15.6619 4.5826 17.2474 5.40616C18.8328 6.22973 20.1309 7.41049 21.0035 8.82274C21.876 10.235 22.2903 11.8259 22.2023 13.426C22.1143 15.0262 21.5273 16.5757 20.5037 17.9097H26.975V0.798416C26.9764 0.590764 26.8839 0.3909 26.7173 0.241656C26.5507 0.0924113 26.3233 0.00566237 26.0837 0ZM1.78375 13C1.78143 11.2526 2.37742 9.54396 3.49625 8.09033H-3V25.207C-2.99984 25.3115 -2.97585 25.415 -2.92942 25.5115C-2.88299 25.608 -2.81502 25.6956 -2.72943 25.7693C-2.64383 25.843 -2.54229 25.9013 -2.43063 25.9409C-2.31897 25.9805 -2.19939 26.0006 -2.07875 26H26.0837C26.3268 26 26.5598 25.9163 26.7316 25.7674C26.9035 25.6185 27 25.4165 27 25.2059V21.8541H12C9.29048 21.8541 6.69194 20.9212 4.77602 19.2608C2.8601 17.6003 1.78375 15.3482 1.78375 13ZM19.4275 12.7757C18.5102 13.0806 17.5515 13.2823 16.575 13.3759C16.6093 13.0438 16.5992 12.7094 16.545 12.3792C17.5101 11.6601 18.3386 10.8138 19 9.87133C19.1523 9.65734 19.2011 9.39997 19.1359 9.155C19.0706 8.91004 18.8967 8.69721 18.6516 8.56267C18.4066 8.42812 18.1102 8.38269 17.8268 8.43622C17.5434 8.48976 17.2957 8.63795 17.1375 8.84866C16.7053 9.45549 16.1958 10.0184 15.6188 10.5267C15.3492 10.2279 15.0309 9.96482 14.6737 9.74566C14.6908 9.18456 14.6388 8.62348 14.5188 8.07191C14.3561 7.32956 14.1216 6.60042 13.8175 5.89225C13.768 5.7743 13.6921 5.66599 13.5942 5.57353C13.4963 5.48106 13.3783 5.40626 13.2469 5.35342C13.1156 5.30058 12.9735 5.27073 12.8288 5.2656C12.6841 5.26046 12.5396 5.28014 12.4037 5.3235C12.2515 5.369 12.1133 5.44424 12 5.54341C11.8516 5.67264 11.7485 5.83568 11.7027 6.01362C11.6569 6.19157 11.6703 6.37712 11.7413 6.54875C11.8413 6.77625 11.925 6.97991 12 7.20958C12.1092 7.5158 12.2008 7.80325 12.275 8.07191C12.3498 8.39833 12.4028 8.72821 12.4338 9.05991C12.0521 9.02366 11.6665 9.03241 11.2875 9.08591C10.4558 8.24939 9.47866 7.53045 8.39125 6.955C8.14384 6.8281 7.84911 6.78976 7.56961 6.84813C7.29012 6.90649 7.04788 7.05696 6.89431 7.2676C6.74075 7.47823 6.68795 7.73244 6.74712 7.97626C6.8063 8.22009 6.97279 8.43433 7.21125 8.5735C7.91193 8.94104 8.56304 9.37526 9.1525 9.86808C8.80713 10.1025 8.50199 10.3782 8.24625 10.6871C6.72256 10.6867 5.21302 10.9405 3.8 11.4346C3.53276 11.5263 3.3174 11.7048 3.19981 11.9321C3.08221 12.1593 3.07168 12.4174 3.17045 12.6514C3.26922 12.8853 3.46949 13.0765 3.72858 13.1843C3.98767 13.2922 4.2851 13.308 4.5575 13.2286C5.48872 12.9157 6.46257 12.7082 7.455 12.6111C7.455 12.7411 7.43 12.8711 7.43 13C7.43202 13.2024 7.4504 13.4044 7.485 13.6045C6.51818 14.3229 5.688 15.1689 5.025 16.1113C4.91852 16.2557 4.85889 16.4222 4.85238 16.5935C4.84588 16.7647 4.89274 16.9343 4.98804 17.0844C5.08334 17.2345 5.22355 17.3596 5.39393 17.4465C5.56431 17.5334 5.75856 17.5789 5.95625 17.5782C6.1417 17.5804 6.32478 17.5419 6.48847 17.4663C6.65216 17.3907 6.79114 17.2805 6.8925 17.1459C7.31515 16.5391 7.8163 15.9761 8.38625 15.4678C8.66016 15.7644 8.97789 16.0285 9.33125 16.2532C9.31328 16.8131 9.36694 17.373 9.49125 17.9227C9.65146 18.6655 9.88609 19.3948 10.1925 20.1023C10.2732 20.2822 10.415 20.4366 10.5991 20.5451C10.7833 20.6536 11.0011 20.7111 11.2237 20.7101C11.3524 20.7101 11.4801 20.6911 11.6012 20.6537C11.7511 20.6045 11.887 20.528 12 20.4295C12.1487 20.3014 12.2521 20.1391 12.298 19.9617C12.3438 19.7844 12.3302 19.5994 12.2587 19.4285C12.1637 19.1956 12.075 18.9973 12 18.7644C11.89 18.4596 11.8004 18.1718 11.7312 17.901C11.6488 17.5897 11.5891 17.2742 11.5525 16.9563H12C12.2351 16.9562 12.4698 16.9417 12.7025 16.913C13.5304 17.749 14.5048 18.467 15.59 19.0407C15.7123 19.1119 15.8498 19.1611 15.9944 19.1855C16.139 19.2099 16.2878 19.2089 16.432 19.1826C16.5762 19.1563 16.7128 19.1053 16.8338 19.0324C16.9548 18.9596 17.0578 18.8665 17.1366 18.7586C17.2154 18.6507 17.2684 18.5302 17.2925 18.4043C17.3167 18.2783 17.3115 18.1494 17.2772 18.0252C17.2429 17.9011 17.1802 17.7841 17.0929 17.6813C17.0056 17.5784 16.8954 17.4918 16.7687 17.4265C16.0698 17.0508 15.4205 16.6097 14.8325 16.1113C15.178 15.8766 15.4831 15.6005 15.7388 15.2912H15.9925C17.4275 15.2523 18.8441 14.9995 20.18 14.5437C20.4413 14.4485 20.6505 14.2699 20.7641 14.0448C20.8778 13.8197 20.8872 13.5654 20.7906 13.3344C20.6939 13.1034 20.4986 12.9135 20.2448 12.8039C19.9911 12.6942 19.6985 12.6733 19.4275 12.7454V12.7757ZM14.45 13V13.1733C14.4257 13.4549 14.3365 13.7294 14.1878 13.9806C14.039 14.2318 13.8336 14.4546 13.5837 14.6358C13.4881 14.7055 13.3866 14.7689 13.28 14.8254C12.891 15.0299 12.445 15.1385 11.99 15.1396H11.79C11.4666 15.1184 11.1512 15.0414 10.8626 14.9133C10.5739 14.7851 10.3176 14.6083 10.1088 14.3932C10.026 14.3091 9.95077 14.2196 9.88375 14.1256C9.648 13.7888 9.52268 13.4026 9.52125 13.0087V12.8353C9.53143 12.7266 9.55107 12.6187 9.58 12.5125C9.70338 12.0704 9.98414 11.6732 10.3825 11.3772C10.4816 11.308 10.5846 11.2433 10.6912 11.1832C11.0799 10.9789 11.5255 10.8703 11.98 10.8691H12.18C12.3071 10.8777 12.4333 10.8947 12.5575 10.92C13.0682 11.0281 13.5266 11.273 13.8675 11.6198C13.9479 11.7024 14.021 11.79 14.0863 11.882C14.3292 12.2174 14.4615 12.604 14.4688 13H14.45Z" fill="#FFA500"/>
</g>
<defs>
<clipPath id="clip0_10_4844">
<rect width="28" height="26" fill="white"/>
</clipPath>
</defs>
</svg>
