<svg width="35" height="28" viewBox="0 0 35 28" fill="none" xmlns="http://www.w3.org/2000/svg">
<g filter="url(#filter0_d_10_4842)">
<path d="M9.4 0V2.10526H6.7C5.215 2.10526 4 3.05263 4 4.21053V14.7368C4 15.8947 5.215 16.8421 6.7 16.8421V17.8947C6.7 19.0526 7.915 20 9.4 20H10.75C12.235 20 13.45 19.0526 13.45 17.8947V16.8421H21.55V17.8947C21.55 19.0526 22.765 20 24.25 20H25.6C27.085 20 28.3 19.0526 28.3 17.8947V16.8421C29.785 16.8421 31 15.8947 31 14.7368H16.15V2.10526H12.1V0H9.4ZM22.9 0V2.10526H18.85V4.21053H31C31 3.05263 29.785 2.10526 28.3 2.10526H25.6V0H22.9ZM10.75 4.21053V8.42105H13.45L9.4 14.7368V10.5263H6.7L10.75 4.21053ZM18.85 6.31579V8.42105H31V6.31579H18.85ZM18.85 10.5263V12.6316H31V10.5263H18.85Z" fill="#FFA500"/>
</g>
<defs>
<filter id="filter0_d_10_4842" x="0" y="0" width="35" height="28" filterUnits="userSpaceOnUse" color-interpolation-filters="sRGB">
<feFlood flood-opacity="0" result="BackgroundImageFix"/>
<feColorMatrix in="SourceAlpha" type="matrix" values="0 0 0 0 0 0 0 0 0 0 0 0 0 0 0 0 0 0 127 0" result="hardAlpha"/>
<feOffset dy="4"/>
<feGaussianBlur stdDeviation="2"/>
<feComposite in2="hardAlpha" operator="out"/>
<feColorMatrix type="matrix" values="0 0 0 0 0 0 0 0 0 0 0 0 0 0 0 0 0 0 0.25 0"/>
<feBlend mode="normal" in2="BackgroundImageFix" result="effect1_dropShadow_10_4842"/>
<feBlend mode="normal" in="SourceGraphic" in2="effect1_dropShadow_10_4842" result="shape"/>
</filter>
</defs>
</svg>
